M48
; DRILL file {KiCad (5.1.6)-1} date 07/20/20 16:24:56
; FORMAT={-:-/ absolute / inch / decimal}
; #@! TF.CreationDate,2020-07-20T16:24:56-04:00
; #@! TF.GenerationSoftware,Kicad,Pcbnew,(5.1.6)-1
; #@! TF.FileFunction,Plated,1,2,PTH
FMAT,2
INCH
T1C0.0157
T2C0.0315
T3C0.0374
T4C0.0400
T5C0.0700
%
G90
G05
T1
X5.74Y-3.205
X5.79Y-3.055
X5.84Y-2.955
X5.99Y-2.955
X6.19Y-3.005
T2
X5.04Y-2.805
X5.04Y-2.905
X5.04Y-3.005
X5.04Y-3.105
X5.04Y-3.205
X5.04Y-3.305
X5.04Y-3.405
X5.04Y-3.505
X5.34Y-2.805
X5.34Y-2.905
X5.34Y-3.005
X5.34Y-3.105
X5.34Y-3.205
X5.34Y-3.305
X5.34Y-3.405
X5.34Y-3.505
T3
X6.39Y-3.6097
X6.39Y-3.7081
X6.39Y-3.8066
X6.39Y-3.905
X6.39Y-2.8097
X6.39Y-2.9081
X6.39Y-3.0066
X6.39Y-3.105
X6.39Y-3.2034
X5.09Y-3.7613
X5.09Y-3.8597
X5.09Y-3.9581
X5.09Y-4.0566
X5.09Y-4.155
X5.09Y-4.2534
T4
X5.49Y-2.805
X5.49Y-2.905
X5.49Y-3.005
X5.49Y-3.105
X5.49Y-3.205
X5.49Y-3.305
X5.49Y-3.405
X5.49Y-3.505
X5.49Y-3.605
X5.49Y-3.705
X5.49Y-3.805
X5.49Y-3.905
X5.49Y-4.005
X5.49Y-4.105
X5.49Y-4.205
X6.09Y-2.805
X6.09Y-2.905
X6.09Y-3.005
X6.09Y-3.105
X6.09Y-3.205
X6.09Y-3.305
X6.09Y-3.405
X6.09Y-3.505
X6.09Y-3.605
X6.09Y-3.705
X6.09Y-3.805
X6.09Y-3.905
X6.09Y-4.005
X6.09Y-4.105
X6.09Y-4.205
T5
X5.49Y-4.305
X6.09Y-4.305
X5.49Y-2.705
X6.09Y-2.705
T0
M30
