%TF.GenerationSoftware,KiCad,Pcbnew,(5.1.6)-1*%
%TF.CreationDate,2020-07-20T20:39:59-04:00*%
%TF.ProjectId,KiCAD,4b694341-442e-46b6-9963-61645f706362,rev?*%
%TF.SameCoordinates,Original*%
%TF.FileFunction,Soldermask,Top*%
%TF.FilePolarity,Negative*%
%FSLAX46Y46*%
G04 Gerber Fmt 4.6, Leading zero omitted, Abs format (unit mm)*
G04 Created by KiCad (PCBNEW (5.1.6)-1) date 2020-07-20 20:39:59*
%MOMM*%
%LPD*%
G01*
G04 APERTURE LIST*
%ADD10C,3.200000*%
%ADD11O,1.600000X1.600000*%
%ADD12R,1.600000X1.600000*%
%ADD13O,1.950000X1.700000*%
%ADD14O,2.032000X1.727200*%
%ADD15C,2.540000*%
G04 APERTURE END LIST*
D10*
%TO.C,REF\u002A\u002A*%
X121666000Y-71247000D03*
%TD*%
%TO.C,REF\u002A\u002A*%
X121666000Y-108077000D03*
%TD*%
%TO.C,REF\u002A\u002A*%
X168656000Y-71247000D03*
%TD*%
%TO.C,REF\u002A\u002A*%
X168656000Y-108077000D03*
%TD*%
D11*
%TO.C,U1*%
X128016000Y-89027000D03*
X135636000Y-71247000D03*
X128016000Y-86487000D03*
X135636000Y-73787000D03*
X128016000Y-83947000D03*
X135636000Y-76327000D03*
X128016000Y-81407000D03*
X135636000Y-78867000D03*
X128016000Y-78867000D03*
X135636000Y-81407000D03*
X128016000Y-76327000D03*
X135636000Y-83947000D03*
X128016000Y-73787000D03*
X135636000Y-86487000D03*
X128016000Y-71247000D03*
D12*
X135636000Y-89027000D03*
%TD*%
D13*
%TO.C,J3*%
X162306000Y-91687000D03*
X162306000Y-94187000D03*
X162306000Y-96687000D03*
G36*
G01*
X163031000Y-100037000D02*
X161581000Y-100037000D01*
G75*
G02*
X161331000Y-99787000I0J250000D01*
G01*
X161331000Y-98587000D01*
G75*
G02*
X161581000Y-98337000I250000J0D01*
G01*
X163031000Y-98337000D01*
G75*
G02*
X163281000Y-98587000I0J-250000D01*
G01*
X163281000Y-99787000D01*
G75*
G02*
X163031000Y-100037000I-250000J0D01*
G01*
G37*
%TD*%
%TO.C,J1*%
X129286000Y-108037000D03*
X129286000Y-105537000D03*
X129286000Y-103037000D03*
X129286000Y-100537000D03*
X129286000Y-98037000D03*
G36*
G01*
X128561000Y-94687000D02*
X130011000Y-94687000D01*
G75*
G02*
X130261000Y-94937000I0J-250000D01*
G01*
X130261000Y-96137000D01*
G75*
G02*
X130011000Y-96387000I-250000J0D01*
G01*
X128561000Y-96387000D01*
G75*
G02*
X128311000Y-96137000I0J250000D01*
G01*
X128311000Y-94937000D01*
G75*
G02*
X128561000Y-94687000I250000J0D01*
G01*
G37*
%TD*%
%TO.C,J2*%
X162306000Y-71367000D03*
X162306000Y-73867000D03*
X162306000Y-76367000D03*
X162306000Y-78867000D03*
G36*
G01*
X163031000Y-82217000D02*
X161581000Y-82217000D01*
G75*
G02*
X161331000Y-81967000I0J250000D01*
G01*
X161331000Y-80767000D01*
G75*
G02*
X161581000Y-80517000I250000J0D01*
G01*
X163031000Y-80517000D01*
G75*
G02*
X163281000Y-80767000I0J-250000D01*
G01*
X163281000Y-81967000D01*
G75*
G02*
X163031000Y-82217000I-250000J0D01*
G01*
G37*
%TD*%
D14*
%TO.C,P1*%
X139446000Y-71247000D03*
X139446000Y-73787000D03*
X139446000Y-76327000D03*
X139446000Y-78867000D03*
X139446000Y-81407000D03*
X139446000Y-83947000D03*
X139446000Y-86487000D03*
X139446000Y-89027000D03*
X139446000Y-91567000D03*
X139446000Y-94107000D03*
X139446000Y-96647000D03*
X139446000Y-99187000D03*
X139446000Y-101727000D03*
X139446000Y-104267000D03*
X139446000Y-106807000D03*
%TD*%
%TO.C,P2*%
X154686000Y-71247000D03*
X154686000Y-73787000D03*
X154686000Y-76327000D03*
X154686000Y-78867000D03*
X154686000Y-81407000D03*
X154686000Y-83947000D03*
X154686000Y-86487000D03*
X154686000Y-89027000D03*
X154686000Y-91567000D03*
X154686000Y-94107000D03*
X154686000Y-96647000D03*
X154686000Y-99187000D03*
X154686000Y-101727000D03*
X154686000Y-104267000D03*
X154686000Y-106807000D03*
%TD*%
D15*
%TO.C,P3*%
X139446000Y-68707000D03*
%TD*%
%TO.C,P4*%
X139446000Y-109347000D03*
%TD*%
%TO.C,P5*%
X154686000Y-109347000D03*
%TD*%
%TO.C,P6*%
X154686000Y-68707000D03*
%TD*%
M02*
