%TF.GenerationSoftware,KiCad,Pcbnew,(5.1.6)-1*%
%TF.CreationDate,2020-07-20T20:39:59-04:00*%
%TF.ProjectId,KiCAD,4b694341-442e-46b6-9963-61645f706362,rev?*%
%TF.SameCoordinates,Original*%
%TF.FileFunction,Copper,L1,Top*%
%TF.FilePolarity,Positive*%
%FSLAX46Y46*%
G04 Gerber Fmt 4.6, Leading zero omitted, Abs format (unit mm)*
G04 Created by KiCad (PCBNEW (5.1.6)-1) date 2020-07-20 20:39:59*
%MOMM*%
%LPD*%
G01*
G04 APERTURE LIST*
%TA.AperFunction,ComponentPad*%
%ADD10O,1.600000X1.600000*%
%TD*%
%TA.AperFunction,ComponentPad*%
%ADD11R,1.600000X1.600000*%
%TD*%
%TA.AperFunction,ComponentPad*%
%ADD12O,1.950000X1.700000*%
%TD*%
%TA.AperFunction,ComponentPad*%
%ADD13O,2.032000X1.727200*%
%TD*%
%TA.AperFunction,ComponentPad*%
%ADD14C,2.540000*%
%TD*%
%TA.AperFunction,ViaPad*%
%ADD15C,0.600000*%
%TD*%
%TA.AperFunction,Conductor*%
%ADD16C,0.250000*%
%TD*%
%TA.AperFunction,Conductor*%
%ADD17C,0.400000*%
%TD*%
%TA.AperFunction,Conductor*%
%ADD18C,0.254000*%
%TD*%
G04 APERTURE END LIST*
D10*
%TO.P,U1,16*%
%TO.N,+5V*%
X128016000Y-89027000D03*
%TO.P,U1,8*%
X135636000Y-71247000D03*
%TO.P,U1,15*%
%TO.N,Net-(U1-Pad15)*%
X128016000Y-86487000D03*
%TO.P,U1,7*%
%TO.N,/5(\u002A\u002A)*%
X135636000Y-73787000D03*
%TO.P,U1,14*%
%TO.N,Net-(U1-Pad14)*%
X128016000Y-83947000D03*
%TO.P,U1,6*%
%TO.N,Net-(J1-Pad2)*%
X135636000Y-76327000D03*
%TO.P,U1,13*%
%TO.N,GND*%
X128016000Y-81407000D03*
%TO.P,U1,5*%
X135636000Y-78867000D03*
%TO.P,U1,12*%
X128016000Y-78867000D03*
%TO.P,U1,4*%
X135636000Y-81407000D03*
%TO.P,U1,11*%
%TO.N,Net-(U1-Pad11)*%
X128016000Y-76327000D03*
%TO.P,U1,3*%
%TO.N,Net-(J1-Pad1)*%
X135636000Y-83947000D03*
%TO.P,U1,10*%
%TO.N,Net-(U1-Pad10)*%
X128016000Y-73787000D03*
%TO.P,U1,2*%
%TO.N,/4*%
X135636000Y-86487000D03*
%TO.P,U1,9*%
%TO.N,Net-(U1-Pad9)*%
X128016000Y-71247000D03*
D11*
%TO.P,U1,1*%
%TO.N,/6(\u002A\u002A)*%
X135636000Y-89027000D03*
%TD*%
D12*
%TO.P,J3,4*%
%TO.N,/A4*%
X162306000Y-91687000D03*
%TO.P,J3,3*%
%TO.N,/A5*%
X162306000Y-94187000D03*
%TO.P,J3,2*%
%TO.N,+5V*%
X162306000Y-96687000D03*
%TO.P,J3,1*%
%TO.N,GND*%
%TA.AperFunction,ComponentPad*%
G36*
G01*
X163031000Y-100037000D02*
X161581000Y-100037000D01*
G75*
G02*
X161331000Y-99787000I0J250000D01*
G01*
X161331000Y-98587000D01*
G75*
G02*
X161581000Y-98337000I250000J0D01*
G01*
X163031000Y-98337000D01*
G75*
G02*
X163281000Y-98587000I0J-250000D01*
G01*
X163281000Y-99787000D01*
G75*
G02*
X163031000Y-100037000I-250000J0D01*
G01*
G37*
%TD.AperFunction*%
%TD*%
%TO.P,J1,6*%
%TO.N,/3(\u002A\u002A)*%
X129286000Y-108037000D03*
%TO.P,J1,5*%
%TO.N,/2*%
X129286000Y-105537000D03*
%TO.P,J1,4*%
%TO.N,GND*%
X129286000Y-103037000D03*
%TO.P,J1,3*%
%TO.N,+5V*%
X129286000Y-100537000D03*
%TO.P,J1,2*%
%TO.N,Net-(J1-Pad2)*%
X129286000Y-98037000D03*
%TO.P,J1,1*%
%TO.N,Net-(J1-Pad1)*%
%TA.AperFunction,ComponentPad*%
G36*
G01*
X128561000Y-94687000D02*
X130011000Y-94687000D01*
G75*
G02*
X130261000Y-94937000I0J-250000D01*
G01*
X130261000Y-96137000D01*
G75*
G02*
X130011000Y-96387000I-250000J0D01*
G01*
X128561000Y-96387000D01*
G75*
G02*
X128311000Y-96137000I0J250000D01*
G01*
X128311000Y-94937000D01*
G75*
G02*
X128561000Y-94687000I250000J0D01*
G01*
G37*
%TD.AperFunction*%
%TD*%
%TO.P,J2,5*%
%TO.N,/9(\u002A\u002A)*%
X162306000Y-71367000D03*
%TO.P,J2,4*%
%TO.N,/8*%
X162306000Y-73867000D03*
%TO.P,J2,3*%
%TO.N,/7*%
X162306000Y-76367000D03*
%TO.P,J2,2*%
%TO.N,+5V*%
X162306000Y-78867000D03*
%TO.P,J2,1*%
%TO.N,GND*%
%TA.AperFunction,ComponentPad*%
G36*
G01*
X163031000Y-82217000D02*
X161581000Y-82217000D01*
G75*
G02*
X161331000Y-81967000I0J250000D01*
G01*
X161331000Y-80767000D01*
G75*
G02*
X161581000Y-80517000I250000J0D01*
G01*
X163031000Y-80517000D01*
G75*
G02*
X163281000Y-80767000I0J-250000D01*
G01*
X163281000Y-81967000D01*
G75*
G02*
X163031000Y-82217000I-250000J0D01*
G01*
G37*
%TD.AperFunction*%
%TD*%
D13*
%TO.P,P1,1*%
%TO.N,/1(Tx)*%
X139446000Y-71247000D03*
%TO.P,P1,2*%
%TO.N,/0(Rx)*%
X139446000Y-73787000D03*
%TO.P,P1,3*%
%TO.N,/Reset*%
X139446000Y-76327000D03*
%TO.P,P1,4*%
%TO.N,GND*%
X139446000Y-78867000D03*
%TO.P,P1,5*%
%TO.N,/2*%
X139446000Y-81407000D03*
%TO.P,P1,6*%
%TO.N,/3(\u002A\u002A)*%
X139446000Y-83947000D03*
%TO.P,P1,7*%
%TO.N,/4*%
X139446000Y-86487000D03*
%TO.P,P1,8*%
%TO.N,/5(\u002A\u002A)*%
X139446000Y-89027000D03*
%TO.P,P1,9*%
%TO.N,/6(\u002A\u002A)*%
X139446000Y-91567000D03*
%TO.P,P1,10*%
%TO.N,/7*%
X139446000Y-94107000D03*
%TO.P,P1,11*%
%TO.N,/8*%
X139446000Y-96647000D03*
%TO.P,P1,12*%
%TO.N,/9(\u002A\u002A)*%
X139446000Y-99187000D03*
%TO.P,P1,13*%
%TO.N,/10(\u002A\u002A/SS)*%
X139446000Y-101727000D03*
%TO.P,P1,14*%
%TO.N,/11(\u002A\u002A/MOSI)*%
X139446000Y-104267000D03*
%TO.P,P1,15*%
%TO.N,/12(MISO)*%
X139446000Y-106807000D03*
%TD*%
%TO.P,P2,1*%
%TO.N,/Vin*%
X154686000Y-71247000D03*
%TO.P,P2,2*%
%TO.N,GND*%
X154686000Y-73787000D03*
%TO.P,P2,3*%
%TO.N,/Reset*%
X154686000Y-76327000D03*
%TO.P,P2,4*%
%TO.N,+5V*%
X154686000Y-78867000D03*
%TO.P,P2,5*%
%TO.N,/A7*%
X154686000Y-81407000D03*
%TO.P,P2,6*%
%TO.N,/A6*%
X154686000Y-83947000D03*
%TO.P,P2,7*%
%TO.N,/A5*%
X154686000Y-86487000D03*
%TO.P,P2,8*%
%TO.N,/A4*%
X154686000Y-89027000D03*
%TO.P,P2,9*%
%TO.N,/A3*%
X154686000Y-91567000D03*
%TO.P,P2,10*%
%TO.N,/A2*%
X154686000Y-94107000D03*
%TO.P,P2,11*%
%TO.N,/A1*%
X154686000Y-96647000D03*
%TO.P,P2,12*%
%TO.N,/A0*%
X154686000Y-99187000D03*
%TO.P,P2,13*%
%TO.N,/AREF*%
X154686000Y-101727000D03*
%TO.P,P2,14*%
%TO.N,+3V3*%
X154686000Y-104267000D03*
%TO.P,P2,15*%
%TO.N,/13(SCK)*%
X154686000Y-106807000D03*
%TD*%
D14*
%TO.P,P3,1*%
%TO.N,Net-(P3-Pad1)*%
X139446000Y-68707000D03*
%TD*%
%TO.P,P4,1*%
%TO.N,Net-(P4-Pad1)*%
X139446000Y-109347000D03*
%TD*%
%TO.P,P5,1*%
%TO.N,Net-(P5-Pad1)*%
X154686000Y-109347000D03*
%TD*%
%TO.P,P6,1*%
%TO.N,Net-(P6-Pad1)*%
X154686000Y-68707000D03*
%TD*%
D15*
%TO.N,/7*%
X145796000Y-81407000D03*
X157226000Y-76327000D03*
%TO.N,/8*%
X147066000Y-77597000D03*
X152146000Y-75057000D03*
%TO.N,/9(\u002A\u002A)*%
X148336000Y-75057000D03*
%TD*%
D16*
%TO.N,/2*%
X137654981Y-83198019D02*
X139446000Y-81407000D01*
X137654981Y-97168019D02*
X137654981Y-83198019D01*
X129286000Y-105537000D02*
X137654981Y-97168019D01*
%TO.N,/3(\u002A\u002A)*%
X138104990Y-99218010D02*
X129286000Y-108037000D01*
X138104990Y-85288010D02*
X138104990Y-99218010D01*
X139446000Y-83947000D02*
X138104990Y-85288010D01*
%TO.N,/5(\u002A\u002A)*%
X140787010Y-87685990D02*
X139446000Y-89027000D01*
X140716000Y-85923652D02*
X140787010Y-85994662D01*
X140787010Y-85145990D02*
X140716000Y-85217000D01*
X140787010Y-80914662D02*
X140787010Y-85145990D01*
X140716000Y-80843652D02*
X140787010Y-80914662D01*
X140716000Y-80137000D02*
X140716000Y-80843652D01*
X140787010Y-80065990D02*
X140716000Y-80137000D01*
X140787010Y-75834662D02*
X140787010Y-80065990D01*
X139927958Y-74975610D02*
X140787010Y-75834662D01*
X140787010Y-85994662D02*
X140787010Y-87685990D01*
X136824610Y-74975610D02*
X139927958Y-74975610D01*
X140716000Y-85217000D02*
X140716000Y-85923652D01*
X135636000Y-73787000D02*
X136824610Y-74975610D01*
%TO.N,/7*%
X139446000Y-94107000D02*
X145796000Y-87757000D01*
X145796000Y-87757000D02*
X145796000Y-81407000D01*
X162266000Y-76327000D02*
X162306000Y-76367000D01*
X157226000Y-76327000D02*
X162266000Y-76327000D01*
%TO.N,/8*%
X139446000Y-96647000D02*
X147066000Y-89027000D01*
X147066000Y-89027000D02*
X147066000Y-77597000D01*
X156439348Y-73867000D02*
X162306000Y-73867000D01*
X155249348Y-75057000D02*
X156439348Y-73867000D01*
X152146000Y-75057000D02*
X155249348Y-75057000D01*
%TO.N,/9(\u002A\u002A)*%
X139446000Y-99187000D02*
X148336000Y-90297000D01*
X148336000Y-90297000D02*
X148336000Y-75057000D01*
D17*
%TO.N,+5V*%
X164131019Y-88312019D02*
X154686000Y-78867000D01*
X164131019Y-94861981D02*
X164131019Y-88312019D01*
X162306000Y-96687000D02*
X164131019Y-94861981D01*
X162306000Y-78867000D02*
X154686000Y-78867000D01*
X136912390Y-72523390D02*
X135636000Y-71247000D01*
X148342390Y-72523390D02*
X136912390Y-72523390D01*
X154686000Y-78867000D02*
X148342390Y-72523390D01*
X129216001Y-77666999D02*
X135636000Y-71247000D01*
X129216001Y-87826999D02*
X129216001Y-77666999D01*
X128016000Y-89027000D02*
X129216001Y-87826999D01*
X127216001Y-89826999D02*
X127216001Y-98467001D01*
X127216001Y-98467001D02*
X129286000Y-100537000D01*
X128016000Y-89027000D02*
X127216001Y-89826999D01*
D16*
%TO.N,/A5*%
X158892715Y-86487000D02*
X154686000Y-86487000D01*
X163606010Y-91200295D02*
X158892715Y-86487000D01*
X163606010Y-92886990D02*
X163606010Y-91200295D01*
X162306000Y-94187000D02*
X163606010Y-92886990D01*
%TO.N,/A4*%
X157346000Y-91687000D02*
X154686000Y-89027000D01*
X162306000Y-91687000D02*
X157346000Y-91687000D01*
D17*
%TO.N,Net-(J1-Pad2)*%
X136836001Y-77527001D02*
X135636000Y-76327000D01*
X136836001Y-90486999D02*
X136836001Y-77527001D01*
X129286000Y-98037000D02*
X136836001Y-90486999D01*
%TO.N,Net-(J1-Pad1)*%
X129286000Y-90297000D02*
X135636000Y-83947000D01*
X129286000Y-95537000D02*
X129286000Y-90297000D01*
%TD*%
D18*
%TO.N,+5V*%
G36*
X137541000Y-68894626D02*
G01*
X137614209Y-69262668D01*
X137757811Y-69609356D01*
X137966290Y-69921366D01*
X138228048Y-70183124D01*
X138041531Y-70410394D01*
X137902375Y-70670736D01*
X137816684Y-70953223D01*
X137787749Y-71247000D01*
X137816684Y-71540777D01*
X137902375Y-71823264D01*
X138041531Y-72083606D01*
X138228803Y-72311797D01*
X138456994Y-72499069D01*
X138490540Y-72517000D01*
X138456994Y-72534931D01*
X138228803Y-72722203D01*
X138041531Y-72950394D01*
X137902375Y-73210736D01*
X137816684Y-73493223D01*
X137787749Y-73787000D01*
X137816684Y-74080777D01*
X137857585Y-74215610D01*
X137139413Y-74215610D01*
X137034688Y-74110886D01*
X137071000Y-73928335D01*
X137071000Y-73645665D01*
X137015853Y-73368426D01*
X136907680Y-73107273D01*
X136750637Y-72872241D01*
X136550759Y-72672363D01*
X136315727Y-72515320D01*
X136305135Y-72510933D01*
X136491131Y-72399385D01*
X136699519Y-72210414D01*
X136867037Y-71984420D01*
X136987246Y-71730087D01*
X137027904Y-71596039D01*
X136905915Y-71374000D01*
X135763000Y-71374000D01*
X135763000Y-71394000D01*
X135509000Y-71394000D01*
X135509000Y-71374000D01*
X134366085Y-71374000D01*
X134244096Y-71596039D01*
X134284754Y-71730087D01*
X134404963Y-71984420D01*
X134572481Y-72210414D01*
X134780869Y-72399385D01*
X134966865Y-72510933D01*
X134956273Y-72515320D01*
X134721241Y-72672363D01*
X134521363Y-72872241D01*
X134364320Y-73107273D01*
X134256147Y-73368426D01*
X134201000Y-73645665D01*
X134201000Y-73928335D01*
X134256147Y-74205574D01*
X134364320Y-74466727D01*
X134521363Y-74701759D01*
X134721241Y-74901637D01*
X134953759Y-75057000D01*
X134721241Y-75212363D01*
X134521363Y-75412241D01*
X134364320Y-75647273D01*
X134256147Y-75908426D01*
X134201000Y-76185665D01*
X134201000Y-76468335D01*
X134256147Y-76745574D01*
X134364320Y-77006727D01*
X134521363Y-77241759D01*
X134721241Y-77441637D01*
X134953759Y-77597000D01*
X134721241Y-77752363D01*
X134521363Y-77952241D01*
X134364320Y-78187273D01*
X134256147Y-78448426D01*
X134201000Y-78725665D01*
X134201000Y-79008335D01*
X134256147Y-79285574D01*
X134364320Y-79546727D01*
X134521363Y-79781759D01*
X134721241Y-79981637D01*
X134953759Y-80137000D01*
X134721241Y-80292363D01*
X134521363Y-80492241D01*
X134364320Y-80727273D01*
X134256147Y-80988426D01*
X134201000Y-81265665D01*
X134201000Y-81548335D01*
X134256147Y-81825574D01*
X134364320Y-82086727D01*
X134521363Y-82321759D01*
X134721241Y-82521637D01*
X134953759Y-82677000D01*
X134721241Y-82832363D01*
X134521363Y-83032241D01*
X134364320Y-83267273D01*
X134256147Y-83528426D01*
X134201000Y-83805665D01*
X134201000Y-84088335D01*
X134219714Y-84182418D01*
X129451000Y-88951133D01*
X129451000Y-88899998D01*
X129285916Y-88899998D01*
X129407904Y-88677961D01*
X129367246Y-88543913D01*
X129247037Y-88289580D01*
X129079519Y-88063586D01*
X128871131Y-87874615D01*
X128685135Y-87763067D01*
X128695727Y-87758680D01*
X128930759Y-87601637D01*
X129130637Y-87401759D01*
X129287680Y-87166727D01*
X129395853Y-86905574D01*
X129451000Y-86628335D01*
X129451000Y-86345665D01*
X129395853Y-86068426D01*
X129287680Y-85807273D01*
X129130637Y-85572241D01*
X128930759Y-85372363D01*
X128698241Y-85217000D01*
X128930759Y-85061637D01*
X129130637Y-84861759D01*
X129287680Y-84626727D01*
X129395853Y-84365574D01*
X129451000Y-84088335D01*
X129451000Y-83805665D01*
X129395853Y-83528426D01*
X129287680Y-83267273D01*
X129130637Y-83032241D01*
X128930759Y-82832363D01*
X128698241Y-82677000D01*
X128930759Y-82521637D01*
X129130637Y-82321759D01*
X129287680Y-82086727D01*
X129395853Y-81825574D01*
X129451000Y-81548335D01*
X129451000Y-81265665D01*
X129395853Y-80988426D01*
X129287680Y-80727273D01*
X129130637Y-80492241D01*
X128930759Y-80292363D01*
X128698241Y-80137000D01*
X128930759Y-79981637D01*
X129130637Y-79781759D01*
X129287680Y-79546727D01*
X129395853Y-79285574D01*
X129451000Y-79008335D01*
X129451000Y-78725665D01*
X129395853Y-78448426D01*
X129287680Y-78187273D01*
X129130637Y-77952241D01*
X128930759Y-77752363D01*
X128698241Y-77597000D01*
X128930759Y-77441637D01*
X129130637Y-77241759D01*
X129287680Y-77006727D01*
X129395853Y-76745574D01*
X129451000Y-76468335D01*
X129451000Y-76185665D01*
X129395853Y-75908426D01*
X129287680Y-75647273D01*
X129130637Y-75412241D01*
X128930759Y-75212363D01*
X128698241Y-75057000D01*
X128930759Y-74901637D01*
X129130637Y-74701759D01*
X129287680Y-74466727D01*
X129395853Y-74205574D01*
X129451000Y-73928335D01*
X129451000Y-73645665D01*
X129395853Y-73368426D01*
X129287680Y-73107273D01*
X129130637Y-72872241D01*
X128930759Y-72672363D01*
X128698241Y-72517000D01*
X128930759Y-72361637D01*
X129130637Y-72161759D01*
X129287680Y-71926727D01*
X129395853Y-71665574D01*
X129451000Y-71388335D01*
X129451000Y-71105665D01*
X129409685Y-70897961D01*
X134244096Y-70897961D01*
X134366085Y-71120000D01*
X135509000Y-71120000D01*
X135509000Y-69976376D01*
X135763000Y-69976376D01*
X135763000Y-71120000D01*
X136905915Y-71120000D01*
X137027904Y-70897961D01*
X136987246Y-70763913D01*
X136867037Y-70509580D01*
X136699519Y-70283586D01*
X136491131Y-70094615D01*
X136249881Y-69949930D01*
X135985040Y-69855091D01*
X135763000Y-69976376D01*
X135509000Y-69976376D01*
X135286960Y-69855091D01*
X135022119Y-69949930D01*
X134780869Y-70094615D01*
X134572481Y-70283586D01*
X134404963Y-70509580D01*
X134284754Y-70763913D01*
X134244096Y-70897961D01*
X129409685Y-70897961D01*
X129395853Y-70828426D01*
X129287680Y-70567273D01*
X129130637Y-70332241D01*
X128930759Y-70132363D01*
X128695727Y-69975320D01*
X128434574Y-69867147D01*
X128157335Y-69812000D01*
X127874665Y-69812000D01*
X127597426Y-69867147D01*
X127336273Y-69975320D01*
X127101241Y-70132363D01*
X126901363Y-70332241D01*
X126744320Y-70567273D01*
X126636147Y-70828426D01*
X126581000Y-71105665D01*
X126581000Y-71388335D01*
X126636147Y-71665574D01*
X126744320Y-71926727D01*
X126901363Y-72161759D01*
X127101241Y-72361637D01*
X127333759Y-72517000D01*
X127101241Y-72672363D01*
X126901363Y-72872241D01*
X126744320Y-73107273D01*
X126636147Y-73368426D01*
X126581000Y-73645665D01*
X126581000Y-73928335D01*
X126636147Y-74205574D01*
X126744320Y-74466727D01*
X126901363Y-74701759D01*
X127101241Y-74901637D01*
X127333759Y-75057000D01*
X127101241Y-75212363D01*
X126901363Y-75412241D01*
X126744320Y-75647273D01*
X126636147Y-75908426D01*
X126581000Y-76185665D01*
X126581000Y-76468335D01*
X126636147Y-76745574D01*
X126744320Y-77006727D01*
X126901363Y-77241759D01*
X127101241Y-77441637D01*
X127333759Y-77597000D01*
X127101241Y-77752363D01*
X126901363Y-77952241D01*
X126744320Y-78187273D01*
X126636147Y-78448426D01*
X126581000Y-78725665D01*
X126581000Y-79008335D01*
X126636147Y-79285574D01*
X126744320Y-79546727D01*
X126901363Y-79781759D01*
X127101241Y-79981637D01*
X127333759Y-80137000D01*
X127101241Y-80292363D01*
X126901363Y-80492241D01*
X126744320Y-80727273D01*
X126636147Y-80988426D01*
X126581000Y-81265665D01*
X126581000Y-81548335D01*
X126636147Y-81825574D01*
X126744320Y-82086727D01*
X126901363Y-82321759D01*
X127101241Y-82521637D01*
X127333759Y-82677000D01*
X127101241Y-82832363D01*
X126901363Y-83032241D01*
X126744320Y-83267273D01*
X126636147Y-83528426D01*
X126581000Y-83805665D01*
X126581000Y-84088335D01*
X126636147Y-84365574D01*
X126744320Y-84626727D01*
X126901363Y-84861759D01*
X127101241Y-85061637D01*
X127333759Y-85217000D01*
X127101241Y-85372363D01*
X126901363Y-85572241D01*
X126744320Y-85807273D01*
X126636147Y-86068426D01*
X126581000Y-86345665D01*
X126581000Y-86628335D01*
X126636147Y-86905574D01*
X126744320Y-87166727D01*
X126901363Y-87401759D01*
X127101241Y-87601637D01*
X127336273Y-87758680D01*
X127346865Y-87763067D01*
X127160869Y-87874615D01*
X126952481Y-88063586D01*
X126784963Y-88289580D01*
X126664754Y-88543913D01*
X126624096Y-88677961D01*
X126746085Y-88900000D01*
X127889000Y-88900000D01*
X127889000Y-88880000D01*
X128143000Y-88880000D01*
X128143000Y-88900000D01*
X128163000Y-88900000D01*
X128163000Y-89154000D01*
X128143000Y-89154000D01*
X128143000Y-90297624D01*
X128365040Y-90418909D01*
X128451001Y-90388127D01*
X128451000Y-94059762D01*
X128387746Y-94065992D01*
X128221150Y-94116528D01*
X128067614Y-94198595D01*
X127933038Y-94309038D01*
X127822595Y-94443614D01*
X127740528Y-94597150D01*
X127689992Y-94763746D01*
X127672928Y-94937000D01*
X127672928Y-96137000D01*
X127689992Y-96310254D01*
X127740528Y-96476850D01*
X127822595Y-96630386D01*
X127933038Y-96764962D01*
X128067614Y-96875405D01*
X128169337Y-96929777D01*
X128105866Y-96981866D01*
X127920294Y-97207986D01*
X127782401Y-97465966D01*
X127697487Y-97745889D01*
X127668815Y-98037000D01*
X127697487Y-98328111D01*
X127782401Y-98608034D01*
X127920294Y-98866014D01*
X128105866Y-99092134D01*
X128331986Y-99277706D01*
X128357722Y-99291462D01*
X128151571Y-99447951D01*
X127958504Y-99665807D01*
X127811648Y-99917142D01*
X127719524Y-100180110D01*
X127840845Y-100410000D01*
X129159000Y-100410000D01*
X129159000Y-100390000D01*
X129413000Y-100390000D01*
X129413000Y-100410000D01*
X130731155Y-100410000D01*
X130852476Y-100180110D01*
X130760352Y-99917142D01*
X130613496Y-99665807D01*
X130420429Y-99447951D01*
X130214278Y-99291462D01*
X130240014Y-99277706D01*
X130466134Y-99092134D01*
X130651706Y-98866014D01*
X130789599Y-98608034D01*
X130874513Y-98328111D01*
X130903185Y-98037000D01*
X130874513Y-97745889D01*
X130847390Y-97656477D01*
X136894981Y-91608887D01*
X136894981Y-96853216D01*
X130885971Y-102862227D01*
X130874513Y-102745889D01*
X130789599Y-102465966D01*
X130651706Y-102207986D01*
X130466134Y-101981866D01*
X130240014Y-101796294D01*
X130214278Y-101782538D01*
X130420429Y-101626049D01*
X130613496Y-101408193D01*
X130760352Y-101156858D01*
X130852476Y-100893890D01*
X130731155Y-100664000D01*
X129413000Y-100664000D01*
X129413000Y-100684000D01*
X129159000Y-100684000D01*
X129159000Y-100664000D01*
X127840845Y-100664000D01*
X127719524Y-100893890D01*
X127811648Y-101156858D01*
X127958504Y-101408193D01*
X128151571Y-101626049D01*
X128357722Y-101782538D01*
X128331986Y-101796294D01*
X128105866Y-101981866D01*
X127920294Y-102207986D01*
X127782401Y-102465966D01*
X127697487Y-102745889D01*
X127668815Y-103037000D01*
X127697487Y-103328111D01*
X127782401Y-103608034D01*
X127920294Y-103866014D01*
X128105866Y-104092134D01*
X128331986Y-104277706D01*
X128349374Y-104287000D01*
X128331986Y-104296294D01*
X128105866Y-104481866D01*
X127920294Y-104707986D01*
X127782401Y-104965966D01*
X127697487Y-105245889D01*
X127668815Y-105537000D01*
X127697487Y-105828111D01*
X127782401Y-106108034D01*
X127920294Y-106366014D01*
X128105866Y-106592134D01*
X128331986Y-106777706D01*
X128349374Y-106787000D01*
X128331986Y-106796294D01*
X128105866Y-106981866D01*
X127920294Y-107207986D01*
X127782401Y-107465966D01*
X127697487Y-107745889D01*
X127668815Y-108037000D01*
X127697487Y-108328111D01*
X127782401Y-108608034D01*
X127920294Y-108866014D01*
X128105866Y-109092134D01*
X128331986Y-109277706D01*
X128589966Y-109415599D01*
X128869889Y-109500513D01*
X129088050Y-109522000D01*
X129483950Y-109522000D01*
X129702111Y-109500513D01*
X129982034Y-109415599D01*
X130240014Y-109277706D01*
X130466134Y-109092134D01*
X130651706Y-108866014D01*
X130789599Y-108608034D01*
X130874513Y-108328111D01*
X130903185Y-108037000D01*
X130874513Y-107745889D01*
X130822704Y-107575097D01*
X138191481Y-100206321D01*
X138228803Y-100251797D01*
X138456994Y-100439069D01*
X138490540Y-100457000D01*
X138456994Y-100474931D01*
X138228803Y-100662203D01*
X138041531Y-100890394D01*
X137902375Y-101150736D01*
X137816684Y-101433223D01*
X137787749Y-101727000D01*
X137816684Y-102020777D01*
X137902375Y-102303264D01*
X138041531Y-102563606D01*
X138228803Y-102791797D01*
X138456994Y-102979069D01*
X138490540Y-102997000D01*
X138456994Y-103014931D01*
X138228803Y-103202203D01*
X138041531Y-103430394D01*
X137902375Y-103690736D01*
X137816684Y-103973223D01*
X137787749Y-104267000D01*
X137816684Y-104560777D01*
X137902375Y-104843264D01*
X138041531Y-105103606D01*
X138228803Y-105331797D01*
X138456994Y-105519069D01*
X138490540Y-105537000D01*
X138456994Y-105554931D01*
X138228803Y-105742203D01*
X138041531Y-105970394D01*
X137902375Y-106230736D01*
X137816684Y-106513223D01*
X137787749Y-106807000D01*
X137816684Y-107100777D01*
X137902375Y-107383264D01*
X138041531Y-107643606D01*
X138228048Y-107870876D01*
X137966290Y-108132634D01*
X137757811Y-108444644D01*
X137614209Y-108791332D01*
X137541000Y-109159374D01*
X137541000Y-109534626D01*
X137614209Y-109902668D01*
X137757811Y-110249356D01*
X137918605Y-110490000D01*
X120448606Y-110490000D01*
X119253000Y-109294394D01*
X119253000Y-107856872D01*
X119431000Y-107856872D01*
X119431000Y-108297128D01*
X119516890Y-108728925D01*
X119685369Y-109135669D01*
X119929962Y-109501729D01*
X120241271Y-109813038D01*
X120607331Y-110057631D01*
X121014075Y-110226110D01*
X121445872Y-110312000D01*
X121886128Y-110312000D01*
X122317925Y-110226110D01*
X122724669Y-110057631D01*
X123090729Y-109813038D01*
X123402038Y-109501729D01*
X123646631Y-109135669D01*
X123815110Y-108728925D01*
X123901000Y-108297128D01*
X123901000Y-107856872D01*
X123815110Y-107425075D01*
X123646631Y-107018331D01*
X123402038Y-106652271D01*
X123090729Y-106340962D01*
X122724669Y-106096369D01*
X122317925Y-105927890D01*
X121886128Y-105842000D01*
X121445872Y-105842000D01*
X121014075Y-105927890D01*
X120607331Y-106096369D01*
X120241271Y-106340962D01*
X119929962Y-106652271D01*
X119685369Y-107018331D01*
X119516890Y-107425075D01*
X119431000Y-107856872D01*
X119253000Y-107856872D01*
X119253000Y-89376039D01*
X126624096Y-89376039D01*
X126664754Y-89510087D01*
X126784963Y-89764420D01*
X126952481Y-89990414D01*
X127160869Y-90179385D01*
X127402119Y-90324070D01*
X127666960Y-90418909D01*
X127889000Y-90297624D01*
X127889000Y-89154000D01*
X126746085Y-89154000D01*
X126624096Y-89376039D01*
X119253000Y-89376039D01*
X119253000Y-71026872D01*
X119431000Y-71026872D01*
X119431000Y-71467128D01*
X119516890Y-71898925D01*
X119685369Y-72305669D01*
X119929962Y-72671729D01*
X120241271Y-72983038D01*
X120607331Y-73227631D01*
X121014075Y-73396110D01*
X121445872Y-73482000D01*
X121886128Y-73482000D01*
X122317925Y-73396110D01*
X122724669Y-73227631D01*
X123090729Y-72983038D01*
X123402038Y-72671729D01*
X123646631Y-72305669D01*
X123815110Y-71898925D01*
X123901000Y-71467128D01*
X123901000Y-71026872D01*
X123815110Y-70595075D01*
X123646631Y-70188331D01*
X123402038Y-69822271D01*
X123090729Y-69510962D01*
X122724669Y-69266369D01*
X122317925Y-69097890D01*
X121886128Y-69012000D01*
X121445872Y-69012000D01*
X121014075Y-69097890D01*
X120607331Y-69266369D01*
X120241271Y-69510962D01*
X119929962Y-69822271D01*
X119685369Y-70188331D01*
X119516890Y-70595075D01*
X119431000Y-71026872D01*
X119253000Y-71026872D01*
X119253000Y-70029606D01*
X120448606Y-68834000D01*
X137541000Y-68834000D01*
X137541000Y-68894626D01*
G37*
X137541000Y-68894626D02*
X137614209Y-69262668D01*
X137757811Y-69609356D01*
X137966290Y-69921366D01*
X138228048Y-70183124D01*
X138041531Y-70410394D01*
X137902375Y-70670736D01*
X137816684Y-70953223D01*
X137787749Y-71247000D01*
X137816684Y-71540777D01*
X137902375Y-71823264D01*
X138041531Y-72083606D01*
X138228803Y-72311797D01*
X138456994Y-72499069D01*
X138490540Y-72517000D01*
X138456994Y-72534931D01*
X138228803Y-72722203D01*
X138041531Y-72950394D01*
X137902375Y-73210736D01*
X137816684Y-73493223D01*
X137787749Y-73787000D01*
X137816684Y-74080777D01*
X137857585Y-74215610D01*
X137139413Y-74215610D01*
X137034688Y-74110886D01*
X137071000Y-73928335D01*
X137071000Y-73645665D01*
X137015853Y-73368426D01*
X136907680Y-73107273D01*
X136750637Y-72872241D01*
X136550759Y-72672363D01*
X136315727Y-72515320D01*
X136305135Y-72510933D01*
X136491131Y-72399385D01*
X136699519Y-72210414D01*
X136867037Y-71984420D01*
X136987246Y-71730087D01*
X137027904Y-71596039D01*
X136905915Y-71374000D01*
X135763000Y-71374000D01*
X135763000Y-71394000D01*
X135509000Y-71394000D01*
X135509000Y-71374000D01*
X134366085Y-71374000D01*
X134244096Y-71596039D01*
X134284754Y-71730087D01*
X134404963Y-71984420D01*
X134572481Y-72210414D01*
X134780869Y-72399385D01*
X134966865Y-72510933D01*
X134956273Y-72515320D01*
X134721241Y-72672363D01*
X134521363Y-72872241D01*
X134364320Y-73107273D01*
X134256147Y-73368426D01*
X134201000Y-73645665D01*
X134201000Y-73928335D01*
X134256147Y-74205574D01*
X134364320Y-74466727D01*
X134521363Y-74701759D01*
X134721241Y-74901637D01*
X134953759Y-75057000D01*
X134721241Y-75212363D01*
X134521363Y-75412241D01*
X134364320Y-75647273D01*
X134256147Y-75908426D01*
X134201000Y-76185665D01*
X134201000Y-76468335D01*
X134256147Y-76745574D01*
X134364320Y-77006727D01*
X134521363Y-77241759D01*
X134721241Y-77441637D01*
X134953759Y-77597000D01*
X134721241Y-77752363D01*
X134521363Y-77952241D01*
X134364320Y-78187273D01*
X134256147Y-78448426D01*
X134201000Y-78725665D01*
X134201000Y-79008335D01*
X134256147Y-79285574D01*
X134364320Y-79546727D01*
X134521363Y-79781759D01*
X134721241Y-79981637D01*
X134953759Y-80137000D01*
X134721241Y-80292363D01*
X134521363Y-80492241D01*
X134364320Y-80727273D01*
X134256147Y-80988426D01*
X134201000Y-81265665D01*
X134201000Y-81548335D01*
X134256147Y-81825574D01*
X134364320Y-82086727D01*
X134521363Y-82321759D01*
X134721241Y-82521637D01*
X134953759Y-82677000D01*
X134721241Y-82832363D01*
X134521363Y-83032241D01*
X134364320Y-83267273D01*
X134256147Y-83528426D01*
X134201000Y-83805665D01*
X134201000Y-84088335D01*
X134219714Y-84182418D01*
X129451000Y-88951133D01*
X129451000Y-88899998D01*
X129285916Y-88899998D01*
X129407904Y-88677961D01*
X129367246Y-88543913D01*
X129247037Y-88289580D01*
X129079519Y-88063586D01*
X128871131Y-87874615D01*
X128685135Y-87763067D01*
X128695727Y-87758680D01*
X128930759Y-87601637D01*
X129130637Y-87401759D01*
X129287680Y-87166727D01*
X129395853Y-86905574D01*
X129451000Y-86628335D01*
X129451000Y-86345665D01*
X129395853Y-86068426D01*
X129287680Y-85807273D01*
X129130637Y-85572241D01*
X128930759Y-85372363D01*
X128698241Y-85217000D01*
X128930759Y-85061637D01*
X129130637Y-84861759D01*
X129287680Y-84626727D01*
X129395853Y-84365574D01*
X129451000Y-84088335D01*
X129451000Y-83805665D01*
X129395853Y-83528426D01*
X129287680Y-83267273D01*
X129130637Y-83032241D01*
X128930759Y-82832363D01*
X128698241Y-82677000D01*
X128930759Y-82521637D01*
X129130637Y-82321759D01*
X129287680Y-82086727D01*
X129395853Y-81825574D01*
X129451000Y-81548335D01*
X129451000Y-81265665D01*
X129395853Y-80988426D01*
X129287680Y-80727273D01*
X129130637Y-80492241D01*
X128930759Y-80292363D01*
X128698241Y-80137000D01*
X128930759Y-79981637D01*
X129130637Y-79781759D01*
X129287680Y-79546727D01*
X129395853Y-79285574D01*
X129451000Y-79008335D01*
X129451000Y-78725665D01*
X129395853Y-78448426D01*
X129287680Y-78187273D01*
X129130637Y-77952241D01*
X128930759Y-77752363D01*
X128698241Y-77597000D01*
X128930759Y-77441637D01*
X129130637Y-77241759D01*
X129287680Y-77006727D01*
X129395853Y-76745574D01*
X129451000Y-76468335D01*
X129451000Y-76185665D01*
X129395853Y-75908426D01*
X129287680Y-75647273D01*
X129130637Y-75412241D01*
X128930759Y-75212363D01*
X128698241Y-75057000D01*
X128930759Y-74901637D01*
X129130637Y-74701759D01*
X129287680Y-74466727D01*
X129395853Y-74205574D01*
X129451000Y-73928335D01*
X129451000Y-73645665D01*
X129395853Y-73368426D01*
X129287680Y-73107273D01*
X129130637Y-72872241D01*
X128930759Y-72672363D01*
X128698241Y-72517000D01*
X128930759Y-72361637D01*
X129130637Y-72161759D01*
X129287680Y-71926727D01*
X129395853Y-71665574D01*
X129451000Y-71388335D01*
X129451000Y-71105665D01*
X129409685Y-70897961D01*
X134244096Y-70897961D01*
X134366085Y-71120000D01*
X135509000Y-71120000D01*
X135509000Y-69976376D01*
X135763000Y-69976376D01*
X135763000Y-71120000D01*
X136905915Y-71120000D01*
X137027904Y-70897961D01*
X136987246Y-70763913D01*
X136867037Y-70509580D01*
X136699519Y-70283586D01*
X136491131Y-70094615D01*
X136249881Y-69949930D01*
X135985040Y-69855091D01*
X135763000Y-69976376D01*
X135509000Y-69976376D01*
X135286960Y-69855091D01*
X135022119Y-69949930D01*
X134780869Y-70094615D01*
X134572481Y-70283586D01*
X134404963Y-70509580D01*
X134284754Y-70763913D01*
X134244096Y-70897961D01*
X129409685Y-70897961D01*
X129395853Y-70828426D01*
X129287680Y-70567273D01*
X129130637Y-70332241D01*
X128930759Y-70132363D01*
X128695727Y-69975320D01*
X128434574Y-69867147D01*
X128157335Y-69812000D01*
X127874665Y-69812000D01*
X127597426Y-69867147D01*
X127336273Y-69975320D01*
X127101241Y-70132363D01*
X126901363Y-70332241D01*
X126744320Y-70567273D01*
X126636147Y-70828426D01*
X126581000Y-71105665D01*
X126581000Y-71388335D01*
X126636147Y-71665574D01*
X126744320Y-71926727D01*
X126901363Y-72161759D01*
X127101241Y-72361637D01*
X127333759Y-72517000D01*
X127101241Y-72672363D01*
X126901363Y-72872241D01*
X126744320Y-73107273D01*
X126636147Y-73368426D01*
X126581000Y-73645665D01*
X126581000Y-73928335D01*
X126636147Y-74205574D01*
X126744320Y-74466727D01*
X126901363Y-74701759D01*
X127101241Y-74901637D01*
X127333759Y-75057000D01*
X127101241Y-75212363D01*
X126901363Y-75412241D01*
X126744320Y-75647273D01*
X126636147Y-75908426D01*
X126581000Y-76185665D01*
X126581000Y-76468335D01*
X126636147Y-76745574D01*
X126744320Y-77006727D01*
X126901363Y-77241759D01*
X127101241Y-77441637D01*
X127333759Y-77597000D01*
X127101241Y-77752363D01*
X126901363Y-77952241D01*
X126744320Y-78187273D01*
X126636147Y-78448426D01*
X126581000Y-78725665D01*
X126581000Y-79008335D01*
X126636147Y-79285574D01*
X126744320Y-79546727D01*
X126901363Y-79781759D01*
X127101241Y-79981637D01*
X127333759Y-80137000D01*
X127101241Y-80292363D01*
X126901363Y-80492241D01*
X126744320Y-80727273D01*
X126636147Y-80988426D01*
X126581000Y-81265665D01*
X126581000Y-81548335D01*
X126636147Y-81825574D01*
X126744320Y-82086727D01*
X126901363Y-82321759D01*
X127101241Y-82521637D01*
X127333759Y-82677000D01*
X127101241Y-82832363D01*
X126901363Y-83032241D01*
X126744320Y-83267273D01*
X126636147Y-83528426D01*
X126581000Y-83805665D01*
X126581000Y-84088335D01*
X126636147Y-84365574D01*
X126744320Y-84626727D01*
X126901363Y-84861759D01*
X127101241Y-85061637D01*
X127333759Y-85217000D01*
X127101241Y-85372363D01*
X126901363Y-85572241D01*
X126744320Y-85807273D01*
X126636147Y-86068426D01*
X126581000Y-86345665D01*
X126581000Y-86628335D01*
X126636147Y-86905574D01*
X126744320Y-87166727D01*
X126901363Y-87401759D01*
X127101241Y-87601637D01*
X127336273Y-87758680D01*
X127346865Y-87763067D01*
X127160869Y-87874615D01*
X126952481Y-88063586D01*
X126784963Y-88289580D01*
X126664754Y-88543913D01*
X126624096Y-88677961D01*
X126746085Y-88900000D01*
X127889000Y-88900000D01*
X127889000Y-88880000D01*
X128143000Y-88880000D01*
X128143000Y-88900000D01*
X128163000Y-88900000D01*
X128163000Y-89154000D01*
X128143000Y-89154000D01*
X128143000Y-90297624D01*
X128365040Y-90418909D01*
X128451001Y-90388127D01*
X128451000Y-94059762D01*
X128387746Y-94065992D01*
X128221150Y-94116528D01*
X128067614Y-94198595D01*
X127933038Y-94309038D01*
X127822595Y-94443614D01*
X127740528Y-94597150D01*
X127689992Y-94763746D01*
X127672928Y-94937000D01*
X127672928Y-96137000D01*
X127689992Y-96310254D01*
X127740528Y-96476850D01*
X127822595Y-96630386D01*
X127933038Y-96764962D01*
X128067614Y-96875405D01*
X128169337Y-96929777D01*
X128105866Y-96981866D01*
X127920294Y-97207986D01*
X127782401Y-97465966D01*
X127697487Y-97745889D01*
X127668815Y-98037000D01*
X127697487Y-98328111D01*
X127782401Y-98608034D01*
X127920294Y-98866014D01*
X128105866Y-99092134D01*
X128331986Y-99277706D01*
X128357722Y-99291462D01*
X128151571Y-99447951D01*
X127958504Y-99665807D01*
X127811648Y-99917142D01*
X127719524Y-100180110D01*
X127840845Y-100410000D01*
X129159000Y-100410000D01*
X129159000Y-100390000D01*
X129413000Y-100390000D01*
X129413000Y-100410000D01*
X130731155Y-100410000D01*
X130852476Y-100180110D01*
X130760352Y-99917142D01*
X130613496Y-99665807D01*
X130420429Y-99447951D01*
X130214278Y-99291462D01*
X130240014Y-99277706D01*
X130466134Y-99092134D01*
X130651706Y-98866014D01*
X130789599Y-98608034D01*
X130874513Y-98328111D01*
X130903185Y-98037000D01*
X130874513Y-97745889D01*
X130847390Y-97656477D01*
X136894981Y-91608887D01*
X136894981Y-96853216D01*
X130885971Y-102862227D01*
X130874513Y-102745889D01*
X130789599Y-102465966D01*
X130651706Y-102207986D01*
X130466134Y-101981866D01*
X130240014Y-101796294D01*
X130214278Y-101782538D01*
X130420429Y-101626049D01*
X130613496Y-101408193D01*
X130760352Y-101156858D01*
X130852476Y-100893890D01*
X130731155Y-100664000D01*
X129413000Y-100664000D01*
X129413000Y-100684000D01*
X129159000Y-100684000D01*
X129159000Y-100664000D01*
X127840845Y-100664000D01*
X127719524Y-100893890D01*
X127811648Y-101156858D01*
X127958504Y-101408193D01*
X128151571Y-101626049D01*
X128357722Y-101782538D01*
X128331986Y-101796294D01*
X128105866Y-101981866D01*
X127920294Y-102207986D01*
X127782401Y-102465966D01*
X127697487Y-102745889D01*
X127668815Y-103037000D01*
X127697487Y-103328111D01*
X127782401Y-103608034D01*
X127920294Y-103866014D01*
X128105866Y-104092134D01*
X128331986Y-104277706D01*
X128349374Y-104287000D01*
X128331986Y-104296294D01*
X128105866Y-104481866D01*
X127920294Y-104707986D01*
X127782401Y-104965966D01*
X127697487Y-105245889D01*
X127668815Y-105537000D01*
X127697487Y-105828111D01*
X127782401Y-106108034D01*
X127920294Y-106366014D01*
X128105866Y-106592134D01*
X128331986Y-106777706D01*
X128349374Y-106787000D01*
X128331986Y-106796294D01*
X128105866Y-106981866D01*
X127920294Y-107207986D01*
X127782401Y-107465966D01*
X127697487Y-107745889D01*
X127668815Y-108037000D01*
X127697487Y-108328111D01*
X127782401Y-108608034D01*
X127920294Y-108866014D01*
X128105866Y-109092134D01*
X128331986Y-109277706D01*
X128589966Y-109415599D01*
X128869889Y-109500513D01*
X129088050Y-109522000D01*
X129483950Y-109522000D01*
X129702111Y-109500513D01*
X129982034Y-109415599D01*
X130240014Y-109277706D01*
X130466134Y-109092134D01*
X130651706Y-108866014D01*
X130789599Y-108608034D01*
X130874513Y-108328111D01*
X130903185Y-108037000D01*
X130874513Y-107745889D01*
X130822704Y-107575097D01*
X138191481Y-100206321D01*
X138228803Y-100251797D01*
X138456994Y-100439069D01*
X138490540Y-100457000D01*
X138456994Y-100474931D01*
X138228803Y-100662203D01*
X138041531Y-100890394D01*
X137902375Y-101150736D01*
X137816684Y-101433223D01*
X137787749Y-101727000D01*
X137816684Y-102020777D01*
X137902375Y-102303264D01*
X138041531Y-102563606D01*
X138228803Y-102791797D01*
X138456994Y-102979069D01*
X138490540Y-102997000D01*
X138456994Y-103014931D01*
X138228803Y-103202203D01*
X138041531Y-103430394D01*
X137902375Y-103690736D01*
X137816684Y-103973223D01*
X137787749Y-104267000D01*
X137816684Y-104560777D01*
X137902375Y-104843264D01*
X138041531Y-105103606D01*
X138228803Y-105331797D01*
X138456994Y-105519069D01*
X138490540Y-105537000D01*
X138456994Y-105554931D01*
X138228803Y-105742203D01*
X138041531Y-105970394D01*
X137902375Y-106230736D01*
X137816684Y-106513223D01*
X137787749Y-106807000D01*
X137816684Y-107100777D01*
X137902375Y-107383264D01*
X138041531Y-107643606D01*
X138228048Y-107870876D01*
X137966290Y-108132634D01*
X137757811Y-108444644D01*
X137614209Y-108791332D01*
X137541000Y-109159374D01*
X137541000Y-109534626D01*
X137614209Y-109902668D01*
X137757811Y-110249356D01*
X137918605Y-110490000D01*
X120448606Y-110490000D01*
X119253000Y-109294394D01*
X119253000Y-107856872D01*
X119431000Y-107856872D01*
X119431000Y-108297128D01*
X119516890Y-108728925D01*
X119685369Y-109135669D01*
X119929962Y-109501729D01*
X120241271Y-109813038D01*
X120607331Y-110057631D01*
X121014075Y-110226110D01*
X121445872Y-110312000D01*
X121886128Y-110312000D01*
X122317925Y-110226110D01*
X122724669Y-110057631D01*
X123090729Y-109813038D01*
X123402038Y-109501729D01*
X123646631Y-109135669D01*
X123815110Y-108728925D01*
X123901000Y-108297128D01*
X123901000Y-107856872D01*
X123815110Y-107425075D01*
X123646631Y-107018331D01*
X123402038Y-106652271D01*
X123090729Y-106340962D01*
X122724669Y-106096369D01*
X122317925Y-105927890D01*
X121886128Y-105842000D01*
X121445872Y-105842000D01*
X121014075Y-105927890D01*
X120607331Y-106096369D01*
X120241271Y-106340962D01*
X119929962Y-106652271D01*
X119685369Y-107018331D01*
X119516890Y-107425075D01*
X119431000Y-107856872D01*
X119253000Y-107856872D01*
X119253000Y-89376039D01*
X126624096Y-89376039D01*
X126664754Y-89510087D01*
X126784963Y-89764420D01*
X126952481Y-89990414D01*
X127160869Y-90179385D01*
X127402119Y-90324070D01*
X127666960Y-90418909D01*
X127889000Y-90297624D01*
X127889000Y-89154000D01*
X126746085Y-89154000D01*
X126624096Y-89376039D01*
X119253000Y-89376039D01*
X119253000Y-71026872D01*
X119431000Y-71026872D01*
X119431000Y-71467128D01*
X119516890Y-71898925D01*
X119685369Y-72305669D01*
X119929962Y-72671729D01*
X120241271Y-72983038D01*
X120607331Y-73227631D01*
X121014075Y-73396110D01*
X121445872Y-73482000D01*
X121886128Y-73482000D01*
X122317925Y-73396110D01*
X122724669Y-73227631D01*
X123090729Y-72983038D01*
X123402038Y-72671729D01*
X123646631Y-72305669D01*
X123815110Y-71898925D01*
X123901000Y-71467128D01*
X123901000Y-71026872D01*
X123815110Y-70595075D01*
X123646631Y-70188331D01*
X123402038Y-69822271D01*
X123090729Y-69510962D01*
X122724669Y-69266369D01*
X122317925Y-69097890D01*
X121886128Y-69012000D01*
X121445872Y-69012000D01*
X121014075Y-69097890D01*
X120607331Y-69266369D01*
X120241271Y-69510962D01*
X119929962Y-69822271D01*
X119685369Y-70188331D01*
X119516890Y-70595075D01*
X119431000Y-71026872D01*
X119253000Y-71026872D01*
X119253000Y-70029606D01*
X120448606Y-68834000D01*
X137541000Y-68834000D01*
X137541000Y-68894626D01*
G36*
X152781000Y-68894626D02*
G01*
X152854209Y-69262668D01*
X152997811Y-69609356D01*
X153206290Y-69921366D01*
X153468048Y-70183124D01*
X153281531Y-70410394D01*
X153142375Y-70670736D01*
X153056684Y-70953223D01*
X153027749Y-71247000D01*
X153056684Y-71540777D01*
X153142375Y-71823264D01*
X153281531Y-72083606D01*
X153468803Y-72311797D01*
X153696994Y-72499069D01*
X153730540Y-72517000D01*
X153696994Y-72534931D01*
X153468803Y-72722203D01*
X153281531Y-72950394D01*
X153142375Y-73210736D01*
X153056684Y-73493223D01*
X153027749Y-73787000D01*
X153056684Y-74080777D01*
X153122274Y-74297000D01*
X152691535Y-74297000D01*
X152588889Y-74228414D01*
X152418729Y-74157932D01*
X152238089Y-74122000D01*
X152053911Y-74122000D01*
X151873271Y-74157932D01*
X151703111Y-74228414D01*
X151549972Y-74330738D01*
X151419738Y-74460972D01*
X151317414Y-74614111D01*
X151246932Y-74784271D01*
X151211000Y-74964911D01*
X151211000Y-75149089D01*
X151246932Y-75329729D01*
X151317414Y-75499889D01*
X151419738Y-75653028D01*
X151549972Y-75783262D01*
X151703111Y-75885586D01*
X151873271Y-75956068D01*
X152053911Y-75992000D01*
X152238089Y-75992000D01*
X152418729Y-75956068D01*
X152588889Y-75885586D01*
X152691535Y-75817000D01*
X153122274Y-75817000D01*
X153056684Y-76033223D01*
X153027749Y-76327000D01*
X153056684Y-76620777D01*
X153142375Y-76903264D01*
X153281531Y-77163606D01*
X153468803Y-77391797D01*
X153696994Y-77579069D01*
X153736947Y-77600424D01*
X153534271Y-77748514D01*
X153335267Y-77964965D01*
X153182314Y-78216081D01*
X153081291Y-78492211D01*
X153078642Y-78507974D01*
X153199783Y-78740000D01*
X154559000Y-78740000D01*
X154559000Y-78720000D01*
X154813000Y-78720000D01*
X154813000Y-78740000D01*
X156172217Y-78740000D01*
X156293358Y-78507974D01*
X156290709Y-78492211D01*
X156189686Y-78216081D01*
X156036733Y-77964965D01*
X155837729Y-77748514D01*
X155635053Y-77600424D01*
X155675006Y-77579069D01*
X155903197Y-77391797D01*
X156090469Y-77163606D01*
X156229625Y-76903264D01*
X156315316Y-76620777D01*
X156320549Y-76567642D01*
X156326932Y-76599729D01*
X156397414Y-76769889D01*
X156499738Y-76923028D01*
X156629972Y-77053262D01*
X156783111Y-77155586D01*
X156953271Y-77226068D01*
X157133911Y-77262000D01*
X157318089Y-77262000D01*
X157498729Y-77226068D01*
X157668889Y-77155586D01*
X157771535Y-77087000D01*
X160882025Y-77087000D01*
X160940294Y-77196014D01*
X161125866Y-77422134D01*
X161351986Y-77607706D01*
X161377722Y-77621462D01*
X161171571Y-77777951D01*
X160978504Y-77995807D01*
X160831648Y-78247142D01*
X160739524Y-78510110D01*
X160860845Y-78740000D01*
X162179000Y-78740000D01*
X162179000Y-78720000D01*
X162433000Y-78720000D01*
X162433000Y-78740000D01*
X163751155Y-78740000D01*
X163872476Y-78510110D01*
X163780352Y-78247142D01*
X163633496Y-77995807D01*
X163440429Y-77777951D01*
X163234278Y-77621462D01*
X163260014Y-77607706D01*
X163486134Y-77422134D01*
X163671706Y-77196014D01*
X163809599Y-76938034D01*
X163894513Y-76658111D01*
X163923185Y-76367000D01*
X163894513Y-76075889D01*
X163809599Y-75795966D01*
X163671706Y-75537986D01*
X163486134Y-75311866D01*
X163260014Y-75126294D01*
X163242626Y-75117000D01*
X163260014Y-75107706D01*
X163486134Y-74922134D01*
X163671706Y-74696014D01*
X163809599Y-74438034D01*
X163894513Y-74158111D01*
X163923185Y-73867000D01*
X163894513Y-73575889D01*
X163809599Y-73295966D01*
X163671706Y-73037986D01*
X163486134Y-72811866D01*
X163260014Y-72626294D01*
X163242626Y-72617000D01*
X163260014Y-72607706D01*
X163486134Y-72422134D01*
X163671706Y-72196014D01*
X163809599Y-71938034D01*
X163894513Y-71658111D01*
X163923185Y-71367000D01*
X163894513Y-71075889D01*
X163879644Y-71026872D01*
X166421000Y-71026872D01*
X166421000Y-71467128D01*
X166506890Y-71898925D01*
X166675369Y-72305669D01*
X166919962Y-72671729D01*
X167231271Y-72983038D01*
X167597331Y-73227631D01*
X168004075Y-73396110D01*
X168435872Y-73482000D01*
X168876128Y-73482000D01*
X169307925Y-73396110D01*
X169714669Y-73227631D01*
X170080729Y-72983038D01*
X170392038Y-72671729D01*
X170636631Y-72305669D01*
X170805110Y-71898925D01*
X170891000Y-71467128D01*
X170891000Y-71026872D01*
X170805110Y-70595075D01*
X170636631Y-70188331D01*
X170392038Y-69822271D01*
X170080729Y-69510962D01*
X169714669Y-69266369D01*
X169307925Y-69097890D01*
X168876128Y-69012000D01*
X168435872Y-69012000D01*
X168004075Y-69097890D01*
X167597331Y-69266369D01*
X167231271Y-69510962D01*
X166919962Y-69822271D01*
X166675369Y-70188331D01*
X166506890Y-70595075D01*
X166421000Y-71026872D01*
X163879644Y-71026872D01*
X163809599Y-70795966D01*
X163671706Y-70537986D01*
X163486134Y-70311866D01*
X163260014Y-70126294D01*
X163002034Y-69988401D01*
X162722111Y-69903487D01*
X162503950Y-69882000D01*
X162108050Y-69882000D01*
X161889889Y-69903487D01*
X161609966Y-69988401D01*
X161351986Y-70126294D01*
X161125866Y-70311866D01*
X160940294Y-70537986D01*
X160802401Y-70795966D01*
X160717487Y-71075889D01*
X160688815Y-71367000D01*
X160717487Y-71658111D01*
X160802401Y-71938034D01*
X160940294Y-72196014D01*
X161125866Y-72422134D01*
X161351986Y-72607706D01*
X161369374Y-72617000D01*
X161351986Y-72626294D01*
X161125866Y-72811866D01*
X160940294Y-73037986D01*
X160903405Y-73107000D01*
X156476670Y-73107000D01*
X156439347Y-73103324D01*
X156402024Y-73107000D01*
X156402015Y-73107000D01*
X156290362Y-73117997D01*
X156195445Y-73146789D01*
X156090469Y-72950394D01*
X155903197Y-72722203D01*
X155675006Y-72534931D01*
X155641460Y-72517000D01*
X155675006Y-72499069D01*
X155903197Y-72311797D01*
X156090469Y-72083606D01*
X156229625Y-71823264D01*
X156315316Y-71540777D01*
X156344251Y-71247000D01*
X156315316Y-70953223D01*
X156229625Y-70670736D01*
X156090469Y-70410394D01*
X155903952Y-70183124D01*
X156165710Y-69921366D01*
X156374189Y-69609356D01*
X156517791Y-69262668D01*
X156591000Y-68894626D01*
X156591000Y-68834000D01*
X169873394Y-68834000D01*
X171069000Y-70029606D01*
X171069000Y-109294394D01*
X169873394Y-110490000D01*
X156213395Y-110490000D01*
X156374189Y-110249356D01*
X156517791Y-109902668D01*
X156591000Y-109534626D01*
X156591000Y-109159374D01*
X156517791Y-108791332D01*
X156374189Y-108444644D01*
X156165710Y-108132634D01*
X155903952Y-107870876D01*
X155915444Y-107856872D01*
X166421000Y-107856872D01*
X166421000Y-108297128D01*
X166506890Y-108728925D01*
X166675369Y-109135669D01*
X166919962Y-109501729D01*
X167231271Y-109813038D01*
X167597331Y-110057631D01*
X168004075Y-110226110D01*
X168435872Y-110312000D01*
X168876128Y-110312000D01*
X169307925Y-110226110D01*
X169714669Y-110057631D01*
X170080729Y-109813038D01*
X170392038Y-109501729D01*
X170636631Y-109135669D01*
X170805110Y-108728925D01*
X170891000Y-108297128D01*
X170891000Y-107856872D01*
X170805110Y-107425075D01*
X170636631Y-107018331D01*
X170392038Y-106652271D01*
X170080729Y-106340962D01*
X169714669Y-106096369D01*
X169307925Y-105927890D01*
X168876128Y-105842000D01*
X168435872Y-105842000D01*
X168004075Y-105927890D01*
X167597331Y-106096369D01*
X167231271Y-106340962D01*
X166919962Y-106652271D01*
X166675369Y-107018331D01*
X166506890Y-107425075D01*
X166421000Y-107856872D01*
X155915444Y-107856872D01*
X156090469Y-107643606D01*
X156229625Y-107383264D01*
X156315316Y-107100777D01*
X156344251Y-106807000D01*
X156315316Y-106513223D01*
X156229625Y-106230736D01*
X156090469Y-105970394D01*
X155903197Y-105742203D01*
X155675006Y-105554931D01*
X155641460Y-105537000D01*
X155675006Y-105519069D01*
X155903197Y-105331797D01*
X156090469Y-105103606D01*
X156229625Y-104843264D01*
X156315316Y-104560777D01*
X156344251Y-104267000D01*
X156315316Y-103973223D01*
X156229625Y-103690736D01*
X156090469Y-103430394D01*
X155903197Y-103202203D01*
X155675006Y-103014931D01*
X155641460Y-102997000D01*
X155675006Y-102979069D01*
X155903197Y-102791797D01*
X156090469Y-102563606D01*
X156229625Y-102303264D01*
X156315316Y-102020777D01*
X156344251Y-101727000D01*
X156315316Y-101433223D01*
X156229625Y-101150736D01*
X156090469Y-100890394D01*
X155903197Y-100662203D01*
X155675006Y-100474931D01*
X155641460Y-100457000D01*
X155675006Y-100439069D01*
X155903197Y-100251797D01*
X156090469Y-100023606D01*
X156229625Y-99763264D01*
X156315316Y-99480777D01*
X156344251Y-99187000D01*
X156315316Y-98893223D01*
X156229625Y-98610736D01*
X156216938Y-98587000D01*
X160692928Y-98587000D01*
X160692928Y-99787000D01*
X160709992Y-99960254D01*
X160760528Y-100126850D01*
X160842595Y-100280386D01*
X160953038Y-100414962D01*
X161087614Y-100525405D01*
X161241150Y-100607472D01*
X161407746Y-100658008D01*
X161581000Y-100675072D01*
X163031000Y-100675072D01*
X163204254Y-100658008D01*
X163370850Y-100607472D01*
X163524386Y-100525405D01*
X163658962Y-100414962D01*
X163769405Y-100280386D01*
X163851472Y-100126850D01*
X163902008Y-99960254D01*
X163919072Y-99787000D01*
X163919072Y-98587000D01*
X163902008Y-98413746D01*
X163851472Y-98247150D01*
X163769405Y-98093614D01*
X163658962Y-97959038D01*
X163524386Y-97848595D01*
X163419039Y-97792286D01*
X163440429Y-97776049D01*
X163633496Y-97558193D01*
X163780352Y-97306858D01*
X163872476Y-97043890D01*
X163751155Y-96814000D01*
X162433000Y-96814000D01*
X162433000Y-96834000D01*
X162179000Y-96834000D01*
X162179000Y-96814000D01*
X160860845Y-96814000D01*
X160739524Y-97043890D01*
X160831648Y-97306858D01*
X160978504Y-97558193D01*
X161171571Y-97776049D01*
X161192961Y-97792286D01*
X161087614Y-97848595D01*
X160953038Y-97959038D01*
X160842595Y-98093614D01*
X160760528Y-98247150D01*
X160709992Y-98413746D01*
X160692928Y-98587000D01*
X156216938Y-98587000D01*
X156090469Y-98350394D01*
X155903197Y-98122203D01*
X155675006Y-97934931D01*
X155641460Y-97917000D01*
X155675006Y-97899069D01*
X155903197Y-97711797D01*
X156090469Y-97483606D01*
X156229625Y-97223264D01*
X156315316Y-96940777D01*
X156344251Y-96647000D01*
X156315316Y-96353223D01*
X156229625Y-96070736D01*
X156090469Y-95810394D01*
X155903197Y-95582203D01*
X155675006Y-95394931D01*
X155641460Y-95377000D01*
X155675006Y-95359069D01*
X155903197Y-95171797D01*
X156090469Y-94943606D01*
X156229625Y-94683264D01*
X156315316Y-94400777D01*
X156344251Y-94107000D01*
X156315316Y-93813223D01*
X156229625Y-93530736D01*
X156090469Y-93270394D01*
X155903197Y-93042203D01*
X155675006Y-92854931D01*
X155641460Y-92837000D01*
X155675006Y-92819069D01*
X155903197Y-92631797D01*
X156090469Y-92403606D01*
X156229625Y-92143264D01*
X156315316Y-91860777D01*
X156326942Y-91742743D01*
X156782201Y-92198003D01*
X156805999Y-92227001D01*
X156834997Y-92250799D01*
X156921723Y-92321974D01*
X157053753Y-92392546D01*
X157197014Y-92436003D01*
X157308667Y-92447000D01*
X157308676Y-92447000D01*
X157345999Y-92450676D01*
X157383322Y-92447000D01*
X160903405Y-92447000D01*
X160940294Y-92516014D01*
X161125866Y-92742134D01*
X161351986Y-92927706D01*
X161369374Y-92937000D01*
X161351986Y-92946294D01*
X161125866Y-93131866D01*
X160940294Y-93357986D01*
X160802401Y-93615966D01*
X160717487Y-93895889D01*
X160688815Y-94187000D01*
X160717487Y-94478111D01*
X160802401Y-94758034D01*
X160940294Y-95016014D01*
X161125866Y-95242134D01*
X161351986Y-95427706D01*
X161377722Y-95441462D01*
X161171571Y-95597951D01*
X160978504Y-95815807D01*
X160831648Y-96067142D01*
X160739524Y-96330110D01*
X160860845Y-96560000D01*
X162179000Y-96560000D01*
X162179000Y-96540000D01*
X162433000Y-96540000D01*
X162433000Y-96560000D01*
X163751155Y-96560000D01*
X163872476Y-96330110D01*
X163780352Y-96067142D01*
X163633496Y-95815807D01*
X163440429Y-95597951D01*
X163234278Y-95441462D01*
X163260014Y-95427706D01*
X163486134Y-95242134D01*
X163671706Y-95016014D01*
X163809599Y-94758034D01*
X163894513Y-94478111D01*
X163923185Y-94187000D01*
X163894513Y-93895889D01*
X163842704Y-93725098D01*
X164117014Y-93450788D01*
X164146011Y-93426991D01*
X164240984Y-93311266D01*
X164311556Y-93179237D01*
X164355013Y-93035976D01*
X164366010Y-92924323D01*
X164366010Y-92924315D01*
X164369686Y-92886990D01*
X164366010Y-92849665D01*
X164366010Y-91237620D01*
X164369686Y-91200295D01*
X164366010Y-91162970D01*
X164366010Y-91162962D01*
X164355013Y-91051309D01*
X164311556Y-90908048D01*
X164240984Y-90776019D01*
X164146011Y-90660294D01*
X164117013Y-90636496D01*
X159456519Y-85976003D01*
X159432716Y-85946999D01*
X159316991Y-85852026D01*
X159184962Y-85781454D01*
X159041701Y-85737997D01*
X158930048Y-85727000D01*
X158930037Y-85727000D01*
X158892715Y-85723324D01*
X158855393Y-85727000D01*
X156131416Y-85727000D01*
X156090469Y-85650394D01*
X155903197Y-85422203D01*
X155675006Y-85234931D01*
X155641460Y-85217000D01*
X155675006Y-85199069D01*
X155903197Y-85011797D01*
X156090469Y-84783606D01*
X156229625Y-84523264D01*
X156315316Y-84240777D01*
X156344251Y-83947000D01*
X156315316Y-83653223D01*
X156229625Y-83370736D01*
X156090469Y-83110394D01*
X155903197Y-82882203D01*
X155675006Y-82694931D01*
X155641460Y-82677000D01*
X155675006Y-82659069D01*
X155903197Y-82471797D01*
X156090469Y-82243606D01*
X156229625Y-81983264D01*
X156315316Y-81700777D01*
X156344251Y-81407000D01*
X156315316Y-81113223D01*
X156229625Y-80830736D01*
X156195558Y-80767000D01*
X160692928Y-80767000D01*
X160692928Y-81967000D01*
X160709992Y-82140254D01*
X160760528Y-82306850D01*
X160842595Y-82460386D01*
X160953038Y-82594962D01*
X161087614Y-82705405D01*
X161241150Y-82787472D01*
X161407746Y-82838008D01*
X161581000Y-82855072D01*
X163031000Y-82855072D01*
X163204254Y-82838008D01*
X163370850Y-82787472D01*
X163524386Y-82705405D01*
X163658962Y-82594962D01*
X163769405Y-82460386D01*
X163851472Y-82306850D01*
X163902008Y-82140254D01*
X163919072Y-81967000D01*
X163919072Y-80767000D01*
X163902008Y-80593746D01*
X163851472Y-80427150D01*
X163769405Y-80273614D01*
X163658962Y-80139038D01*
X163524386Y-80028595D01*
X163419039Y-79972286D01*
X163440429Y-79956049D01*
X163633496Y-79738193D01*
X163780352Y-79486858D01*
X163872476Y-79223890D01*
X163751155Y-78994000D01*
X162433000Y-78994000D01*
X162433000Y-79014000D01*
X162179000Y-79014000D01*
X162179000Y-78994000D01*
X160860845Y-78994000D01*
X160739524Y-79223890D01*
X160831648Y-79486858D01*
X160978504Y-79738193D01*
X161171571Y-79956049D01*
X161192961Y-79972286D01*
X161087614Y-80028595D01*
X160953038Y-80139038D01*
X160842595Y-80273614D01*
X160760528Y-80427150D01*
X160709992Y-80593746D01*
X160692928Y-80767000D01*
X156195558Y-80767000D01*
X156090469Y-80570394D01*
X155903197Y-80342203D01*
X155675006Y-80154931D01*
X155635053Y-80133576D01*
X155837729Y-79985486D01*
X156036733Y-79769035D01*
X156189686Y-79517919D01*
X156290709Y-79241789D01*
X156293358Y-79226026D01*
X156172217Y-78994000D01*
X154813000Y-78994000D01*
X154813000Y-79014000D01*
X154559000Y-79014000D01*
X154559000Y-78994000D01*
X153199783Y-78994000D01*
X153078642Y-79226026D01*
X153081291Y-79241789D01*
X153182314Y-79517919D01*
X153335267Y-79769035D01*
X153534271Y-79985486D01*
X153736947Y-80133576D01*
X153696994Y-80154931D01*
X153468803Y-80342203D01*
X153281531Y-80570394D01*
X153142375Y-80830736D01*
X153056684Y-81113223D01*
X153027749Y-81407000D01*
X153056684Y-81700777D01*
X153142375Y-81983264D01*
X153281531Y-82243606D01*
X153468803Y-82471797D01*
X153696994Y-82659069D01*
X153730540Y-82677000D01*
X153696994Y-82694931D01*
X153468803Y-82882203D01*
X153281531Y-83110394D01*
X153142375Y-83370736D01*
X153056684Y-83653223D01*
X153027749Y-83947000D01*
X153056684Y-84240777D01*
X153142375Y-84523264D01*
X153281531Y-84783606D01*
X153468803Y-85011797D01*
X153696994Y-85199069D01*
X153730540Y-85217000D01*
X153696994Y-85234931D01*
X153468803Y-85422203D01*
X153281531Y-85650394D01*
X153142375Y-85910736D01*
X153056684Y-86193223D01*
X153027749Y-86487000D01*
X153056684Y-86780777D01*
X153142375Y-87063264D01*
X153281531Y-87323606D01*
X153468803Y-87551797D01*
X153696994Y-87739069D01*
X153730540Y-87757000D01*
X153696994Y-87774931D01*
X153468803Y-87962203D01*
X153281531Y-88190394D01*
X153142375Y-88450736D01*
X153056684Y-88733223D01*
X153027749Y-89027000D01*
X153056684Y-89320777D01*
X153142375Y-89603264D01*
X153281531Y-89863606D01*
X153468803Y-90091797D01*
X153696994Y-90279069D01*
X153730540Y-90297000D01*
X153696994Y-90314931D01*
X153468803Y-90502203D01*
X153281531Y-90730394D01*
X153142375Y-90990736D01*
X153056684Y-91273223D01*
X153027749Y-91567000D01*
X153056684Y-91860777D01*
X153142375Y-92143264D01*
X153281531Y-92403606D01*
X153468803Y-92631797D01*
X153696994Y-92819069D01*
X153730540Y-92837000D01*
X153696994Y-92854931D01*
X153468803Y-93042203D01*
X153281531Y-93270394D01*
X153142375Y-93530736D01*
X153056684Y-93813223D01*
X153027749Y-94107000D01*
X153056684Y-94400777D01*
X153142375Y-94683264D01*
X153281531Y-94943606D01*
X153468803Y-95171797D01*
X153696994Y-95359069D01*
X153730540Y-95377000D01*
X153696994Y-95394931D01*
X153468803Y-95582203D01*
X153281531Y-95810394D01*
X153142375Y-96070736D01*
X153056684Y-96353223D01*
X153027749Y-96647000D01*
X153056684Y-96940777D01*
X153142375Y-97223264D01*
X153281531Y-97483606D01*
X153468803Y-97711797D01*
X153696994Y-97899069D01*
X153730540Y-97917000D01*
X153696994Y-97934931D01*
X153468803Y-98122203D01*
X153281531Y-98350394D01*
X153142375Y-98610736D01*
X153056684Y-98893223D01*
X153027749Y-99187000D01*
X153056684Y-99480777D01*
X153142375Y-99763264D01*
X153281531Y-100023606D01*
X153468803Y-100251797D01*
X153696994Y-100439069D01*
X153730540Y-100457000D01*
X153696994Y-100474931D01*
X153468803Y-100662203D01*
X153281531Y-100890394D01*
X153142375Y-101150736D01*
X153056684Y-101433223D01*
X153027749Y-101727000D01*
X153056684Y-102020777D01*
X153142375Y-102303264D01*
X153281531Y-102563606D01*
X153468803Y-102791797D01*
X153696994Y-102979069D01*
X153730540Y-102997000D01*
X153696994Y-103014931D01*
X153468803Y-103202203D01*
X153281531Y-103430394D01*
X153142375Y-103690736D01*
X153056684Y-103973223D01*
X153027749Y-104267000D01*
X153056684Y-104560777D01*
X153142375Y-104843264D01*
X153281531Y-105103606D01*
X153468803Y-105331797D01*
X153696994Y-105519069D01*
X153730540Y-105537000D01*
X153696994Y-105554931D01*
X153468803Y-105742203D01*
X153281531Y-105970394D01*
X153142375Y-106230736D01*
X153056684Y-106513223D01*
X153027749Y-106807000D01*
X153056684Y-107100777D01*
X153142375Y-107383264D01*
X153281531Y-107643606D01*
X153468048Y-107870876D01*
X153206290Y-108132634D01*
X152997811Y-108444644D01*
X152854209Y-108791332D01*
X152781000Y-109159374D01*
X152781000Y-109534626D01*
X152854209Y-109902668D01*
X152997811Y-110249356D01*
X153158605Y-110490000D01*
X140973395Y-110490000D01*
X141134189Y-110249356D01*
X141277791Y-109902668D01*
X141351000Y-109534626D01*
X141351000Y-109159374D01*
X141277791Y-108791332D01*
X141134189Y-108444644D01*
X140925710Y-108132634D01*
X140663952Y-107870876D01*
X140850469Y-107643606D01*
X140989625Y-107383264D01*
X141075316Y-107100777D01*
X141104251Y-106807000D01*
X141075316Y-106513223D01*
X140989625Y-106230736D01*
X140850469Y-105970394D01*
X140663197Y-105742203D01*
X140435006Y-105554931D01*
X140401460Y-105537000D01*
X140435006Y-105519069D01*
X140663197Y-105331797D01*
X140850469Y-105103606D01*
X140989625Y-104843264D01*
X141075316Y-104560777D01*
X141104251Y-104267000D01*
X141075316Y-103973223D01*
X140989625Y-103690736D01*
X140850469Y-103430394D01*
X140663197Y-103202203D01*
X140435006Y-103014931D01*
X140401460Y-102997000D01*
X140435006Y-102979069D01*
X140663197Y-102791797D01*
X140850469Y-102563606D01*
X140989625Y-102303264D01*
X141075316Y-102020777D01*
X141104251Y-101727000D01*
X141075316Y-101433223D01*
X140989625Y-101150736D01*
X140850469Y-100890394D01*
X140663197Y-100662203D01*
X140435006Y-100474931D01*
X140401460Y-100457000D01*
X140435006Y-100439069D01*
X140663197Y-100251797D01*
X140850469Y-100023606D01*
X140989625Y-99763264D01*
X141075316Y-99480777D01*
X141104251Y-99187000D01*
X141075316Y-98893223D01*
X141014631Y-98693170D01*
X148847004Y-90860798D01*
X148876001Y-90837001D01*
X148970974Y-90721276D01*
X149041546Y-90589247D01*
X149085003Y-90445986D01*
X149096000Y-90334333D01*
X149096000Y-90334332D01*
X149099677Y-90297000D01*
X149096000Y-90259667D01*
X149096000Y-75602535D01*
X149164586Y-75499889D01*
X149235068Y-75329729D01*
X149271000Y-75149089D01*
X149271000Y-74964911D01*
X149235068Y-74784271D01*
X149164586Y-74614111D01*
X149062262Y-74460972D01*
X148932028Y-74330738D01*
X148778889Y-74228414D01*
X148608729Y-74157932D01*
X148428089Y-74122000D01*
X148243911Y-74122000D01*
X148063271Y-74157932D01*
X147893111Y-74228414D01*
X147739972Y-74330738D01*
X147609738Y-74460972D01*
X147507414Y-74614111D01*
X147436932Y-74784271D01*
X147401000Y-74964911D01*
X147401000Y-75149089D01*
X147436932Y-75329729D01*
X147507414Y-75499889D01*
X147576001Y-75602537D01*
X147576001Y-76813257D01*
X147508889Y-76768414D01*
X147338729Y-76697932D01*
X147158089Y-76662000D01*
X146973911Y-76662000D01*
X146793271Y-76697932D01*
X146623111Y-76768414D01*
X146469972Y-76870738D01*
X146339738Y-77000972D01*
X146237414Y-77154111D01*
X146166932Y-77324271D01*
X146131000Y-77504911D01*
X146131000Y-77689089D01*
X146166932Y-77869729D01*
X146237414Y-78039889D01*
X146306001Y-78142537D01*
X146306001Y-80623257D01*
X146238889Y-80578414D01*
X146068729Y-80507932D01*
X145888089Y-80472000D01*
X145703911Y-80472000D01*
X145523271Y-80507932D01*
X145353111Y-80578414D01*
X145199972Y-80680738D01*
X145069738Y-80810972D01*
X144967414Y-80964111D01*
X144896932Y-81134271D01*
X144861000Y-81314911D01*
X144861000Y-81499089D01*
X144896932Y-81679729D01*
X144967414Y-81849889D01*
X145036001Y-81952537D01*
X145036000Y-87442198D01*
X141086942Y-91391257D01*
X141075316Y-91273223D01*
X140989625Y-90990736D01*
X140850469Y-90730394D01*
X140663197Y-90502203D01*
X140435006Y-90314931D01*
X140401460Y-90297000D01*
X140435006Y-90279069D01*
X140663197Y-90091797D01*
X140850469Y-89863606D01*
X140989625Y-89603264D01*
X141075316Y-89320777D01*
X141104251Y-89027000D01*
X141075316Y-88733223D01*
X141014631Y-88533171D01*
X141298013Y-88249789D01*
X141327011Y-88225991D01*
X141421984Y-88110266D01*
X141492556Y-87978237D01*
X141536013Y-87834976D01*
X141547010Y-87723323D01*
X141550687Y-87685990D01*
X141547010Y-87648657D01*
X141547010Y-86031984D01*
X141550686Y-85994661D01*
X141547010Y-85957339D01*
X141547010Y-85957329D01*
X141536013Y-85845676D01*
X141492556Y-85702415D01*
X141476000Y-85671441D01*
X141476000Y-85469211D01*
X141492556Y-85438237D01*
X141536013Y-85294976D01*
X141547010Y-85183323D01*
X141547010Y-85183313D01*
X141550686Y-85145991D01*
X141547010Y-85108668D01*
X141547010Y-80951984D01*
X141550686Y-80914661D01*
X141547010Y-80877339D01*
X141547010Y-80877329D01*
X141536013Y-80765676D01*
X141492556Y-80622415D01*
X141476000Y-80591441D01*
X141476000Y-80389211D01*
X141492556Y-80358237D01*
X141536013Y-80214976D01*
X141547010Y-80103323D01*
X141547010Y-80103313D01*
X141550686Y-80065991D01*
X141547010Y-80028668D01*
X141547010Y-75871984D01*
X141550686Y-75834662D01*
X141547010Y-75797339D01*
X141547010Y-75797329D01*
X141536013Y-75685676D01*
X141492556Y-75542415D01*
X141421985Y-75410387D01*
X141421984Y-75410385D01*
X141350809Y-75323659D01*
X141327011Y-75294661D01*
X141298014Y-75270864D01*
X140760447Y-74733298D01*
X140850469Y-74623606D01*
X140989625Y-74363264D01*
X141075316Y-74080777D01*
X141104251Y-73787000D01*
X141075316Y-73493223D01*
X140989625Y-73210736D01*
X140850469Y-72950394D01*
X140663197Y-72722203D01*
X140435006Y-72534931D01*
X140401460Y-72517000D01*
X140435006Y-72499069D01*
X140663197Y-72311797D01*
X140850469Y-72083606D01*
X140989625Y-71823264D01*
X141075316Y-71540777D01*
X141104251Y-71247000D01*
X141075316Y-70953223D01*
X140989625Y-70670736D01*
X140850469Y-70410394D01*
X140663952Y-70183124D01*
X140925710Y-69921366D01*
X141134189Y-69609356D01*
X141277791Y-69262668D01*
X141351000Y-68894626D01*
X141351000Y-68834000D01*
X152781000Y-68834000D01*
X152781000Y-68894626D01*
G37*
X152781000Y-68894626D02*
X152854209Y-69262668D01*
X152997811Y-69609356D01*
X153206290Y-69921366D01*
X153468048Y-70183124D01*
X153281531Y-70410394D01*
X153142375Y-70670736D01*
X153056684Y-70953223D01*
X153027749Y-71247000D01*
X153056684Y-71540777D01*
X153142375Y-71823264D01*
X153281531Y-72083606D01*
X153468803Y-72311797D01*
X153696994Y-72499069D01*
X153730540Y-72517000D01*
X153696994Y-72534931D01*
X153468803Y-72722203D01*
X153281531Y-72950394D01*
X153142375Y-73210736D01*
X153056684Y-73493223D01*
X153027749Y-73787000D01*
X153056684Y-74080777D01*
X153122274Y-74297000D01*
X152691535Y-74297000D01*
X152588889Y-74228414D01*
X152418729Y-74157932D01*
X152238089Y-74122000D01*
X152053911Y-74122000D01*
X151873271Y-74157932D01*
X151703111Y-74228414D01*
X151549972Y-74330738D01*
X151419738Y-74460972D01*
X151317414Y-74614111D01*
X151246932Y-74784271D01*
X151211000Y-74964911D01*
X151211000Y-75149089D01*
X151246932Y-75329729D01*
X151317414Y-75499889D01*
X151419738Y-75653028D01*
X151549972Y-75783262D01*
X151703111Y-75885586D01*
X151873271Y-75956068D01*
X152053911Y-75992000D01*
X152238089Y-75992000D01*
X152418729Y-75956068D01*
X152588889Y-75885586D01*
X152691535Y-75817000D01*
X153122274Y-75817000D01*
X153056684Y-76033223D01*
X153027749Y-76327000D01*
X153056684Y-76620777D01*
X153142375Y-76903264D01*
X153281531Y-77163606D01*
X153468803Y-77391797D01*
X153696994Y-77579069D01*
X153736947Y-77600424D01*
X153534271Y-77748514D01*
X153335267Y-77964965D01*
X153182314Y-78216081D01*
X153081291Y-78492211D01*
X153078642Y-78507974D01*
X153199783Y-78740000D01*
X154559000Y-78740000D01*
X154559000Y-78720000D01*
X154813000Y-78720000D01*
X154813000Y-78740000D01*
X156172217Y-78740000D01*
X156293358Y-78507974D01*
X156290709Y-78492211D01*
X156189686Y-78216081D01*
X156036733Y-77964965D01*
X155837729Y-77748514D01*
X155635053Y-77600424D01*
X155675006Y-77579069D01*
X155903197Y-77391797D01*
X156090469Y-77163606D01*
X156229625Y-76903264D01*
X156315316Y-76620777D01*
X156320549Y-76567642D01*
X156326932Y-76599729D01*
X156397414Y-76769889D01*
X156499738Y-76923028D01*
X156629972Y-77053262D01*
X156783111Y-77155586D01*
X156953271Y-77226068D01*
X157133911Y-77262000D01*
X157318089Y-77262000D01*
X157498729Y-77226068D01*
X157668889Y-77155586D01*
X157771535Y-77087000D01*
X160882025Y-77087000D01*
X160940294Y-77196014D01*
X161125866Y-77422134D01*
X161351986Y-77607706D01*
X161377722Y-77621462D01*
X161171571Y-77777951D01*
X160978504Y-77995807D01*
X160831648Y-78247142D01*
X160739524Y-78510110D01*
X160860845Y-78740000D01*
X162179000Y-78740000D01*
X162179000Y-78720000D01*
X162433000Y-78720000D01*
X162433000Y-78740000D01*
X163751155Y-78740000D01*
X163872476Y-78510110D01*
X163780352Y-78247142D01*
X163633496Y-77995807D01*
X163440429Y-77777951D01*
X163234278Y-77621462D01*
X163260014Y-77607706D01*
X163486134Y-77422134D01*
X163671706Y-77196014D01*
X163809599Y-76938034D01*
X163894513Y-76658111D01*
X163923185Y-76367000D01*
X163894513Y-76075889D01*
X163809599Y-75795966D01*
X163671706Y-75537986D01*
X163486134Y-75311866D01*
X163260014Y-75126294D01*
X163242626Y-75117000D01*
X163260014Y-75107706D01*
X163486134Y-74922134D01*
X163671706Y-74696014D01*
X163809599Y-74438034D01*
X163894513Y-74158111D01*
X163923185Y-73867000D01*
X163894513Y-73575889D01*
X163809599Y-73295966D01*
X163671706Y-73037986D01*
X163486134Y-72811866D01*
X163260014Y-72626294D01*
X163242626Y-72617000D01*
X163260014Y-72607706D01*
X163486134Y-72422134D01*
X163671706Y-72196014D01*
X163809599Y-71938034D01*
X163894513Y-71658111D01*
X163923185Y-71367000D01*
X163894513Y-71075889D01*
X163879644Y-71026872D01*
X166421000Y-71026872D01*
X166421000Y-71467128D01*
X166506890Y-71898925D01*
X166675369Y-72305669D01*
X166919962Y-72671729D01*
X167231271Y-72983038D01*
X167597331Y-73227631D01*
X168004075Y-73396110D01*
X168435872Y-73482000D01*
X168876128Y-73482000D01*
X169307925Y-73396110D01*
X169714669Y-73227631D01*
X170080729Y-72983038D01*
X170392038Y-72671729D01*
X170636631Y-72305669D01*
X170805110Y-71898925D01*
X170891000Y-71467128D01*
X170891000Y-71026872D01*
X170805110Y-70595075D01*
X170636631Y-70188331D01*
X170392038Y-69822271D01*
X170080729Y-69510962D01*
X169714669Y-69266369D01*
X169307925Y-69097890D01*
X168876128Y-69012000D01*
X168435872Y-69012000D01*
X168004075Y-69097890D01*
X167597331Y-69266369D01*
X167231271Y-69510962D01*
X166919962Y-69822271D01*
X166675369Y-70188331D01*
X166506890Y-70595075D01*
X166421000Y-71026872D01*
X163879644Y-71026872D01*
X163809599Y-70795966D01*
X163671706Y-70537986D01*
X163486134Y-70311866D01*
X163260014Y-70126294D01*
X163002034Y-69988401D01*
X162722111Y-69903487D01*
X162503950Y-69882000D01*
X162108050Y-69882000D01*
X161889889Y-69903487D01*
X161609966Y-69988401D01*
X161351986Y-70126294D01*
X161125866Y-70311866D01*
X160940294Y-70537986D01*
X160802401Y-70795966D01*
X160717487Y-71075889D01*
X160688815Y-71367000D01*
X160717487Y-71658111D01*
X160802401Y-71938034D01*
X160940294Y-72196014D01*
X161125866Y-72422134D01*
X161351986Y-72607706D01*
X161369374Y-72617000D01*
X161351986Y-72626294D01*
X161125866Y-72811866D01*
X160940294Y-73037986D01*
X160903405Y-73107000D01*
X156476670Y-73107000D01*
X156439347Y-73103324D01*
X156402024Y-73107000D01*
X156402015Y-73107000D01*
X156290362Y-73117997D01*
X156195445Y-73146789D01*
X156090469Y-72950394D01*
X155903197Y-72722203D01*
X155675006Y-72534931D01*
X155641460Y-72517000D01*
X155675006Y-72499069D01*
X155903197Y-72311797D01*
X156090469Y-72083606D01*
X156229625Y-71823264D01*
X156315316Y-71540777D01*
X156344251Y-71247000D01*
X156315316Y-70953223D01*
X156229625Y-70670736D01*
X156090469Y-70410394D01*
X155903952Y-70183124D01*
X156165710Y-69921366D01*
X156374189Y-69609356D01*
X156517791Y-69262668D01*
X156591000Y-68894626D01*
X156591000Y-68834000D01*
X169873394Y-68834000D01*
X171069000Y-70029606D01*
X171069000Y-109294394D01*
X169873394Y-110490000D01*
X156213395Y-110490000D01*
X156374189Y-110249356D01*
X156517791Y-109902668D01*
X156591000Y-109534626D01*
X156591000Y-109159374D01*
X156517791Y-108791332D01*
X156374189Y-108444644D01*
X156165710Y-108132634D01*
X155903952Y-107870876D01*
X155915444Y-107856872D01*
X166421000Y-107856872D01*
X166421000Y-108297128D01*
X166506890Y-108728925D01*
X166675369Y-109135669D01*
X166919962Y-109501729D01*
X167231271Y-109813038D01*
X167597331Y-110057631D01*
X168004075Y-110226110D01*
X168435872Y-110312000D01*
X168876128Y-110312000D01*
X169307925Y-110226110D01*
X169714669Y-110057631D01*
X170080729Y-109813038D01*
X170392038Y-109501729D01*
X170636631Y-109135669D01*
X170805110Y-108728925D01*
X170891000Y-108297128D01*
X170891000Y-107856872D01*
X170805110Y-107425075D01*
X170636631Y-107018331D01*
X170392038Y-106652271D01*
X170080729Y-106340962D01*
X169714669Y-106096369D01*
X169307925Y-105927890D01*
X168876128Y-105842000D01*
X168435872Y-105842000D01*
X168004075Y-105927890D01*
X167597331Y-106096369D01*
X167231271Y-106340962D01*
X166919962Y-106652271D01*
X166675369Y-107018331D01*
X166506890Y-107425075D01*
X166421000Y-107856872D01*
X155915444Y-107856872D01*
X156090469Y-107643606D01*
X156229625Y-107383264D01*
X156315316Y-107100777D01*
X156344251Y-106807000D01*
X156315316Y-106513223D01*
X156229625Y-106230736D01*
X156090469Y-105970394D01*
X155903197Y-105742203D01*
X155675006Y-105554931D01*
X155641460Y-105537000D01*
X155675006Y-105519069D01*
X155903197Y-105331797D01*
X156090469Y-105103606D01*
X156229625Y-104843264D01*
X156315316Y-104560777D01*
X156344251Y-104267000D01*
X156315316Y-103973223D01*
X156229625Y-103690736D01*
X156090469Y-103430394D01*
X155903197Y-103202203D01*
X155675006Y-103014931D01*
X155641460Y-102997000D01*
X155675006Y-102979069D01*
X155903197Y-102791797D01*
X156090469Y-102563606D01*
X156229625Y-102303264D01*
X156315316Y-102020777D01*
X156344251Y-101727000D01*
X156315316Y-101433223D01*
X156229625Y-101150736D01*
X156090469Y-100890394D01*
X155903197Y-100662203D01*
X155675006Y-100474931D01*
X155641460Y-100457000D01*
X155675006Y-100439069D01*
X155903197Y-100251797D01*
X156090469Y-100023606D01*
X156229625Y-99763264D01*
X156315316Y-99480777D01*
X156344251Y-99187000D01*
X156315316Y-98893223D01*
X156229625Y-98610736D01*
X156216938Y-98587000D01*
X160692928Y-98587000D01*
X160692928Y-99787000D01*
X160709992Y-99960254D01*
X160760528Y-100126850D01*
X160842595Y-100280386D01*
X160953038Y-100414962D01*
X161087614Y-100525405D01*
X161241150Y-100607472D01*
X161407746Y-100658008D01*
X161581000Y-100675072D01*
X163031000Y-100675072D01*
X163204254Y-100658008D01*
X163370850Y-100607472D01*
X163524386Y-100525405D01*
X163658962Y-100414962D01*
X163769405Y-100280386D01*
X163851472Y-100126850D01*
X163902008Y-99960254D01*
X163919072Y-99787000D01*
X163919072Y-98587000D01*
X163902008Y-98413746D01*
X163851472Y-98247150D01*
X163769405Y-98093614D01*
X163658962Y-97959038D01*
X163524386Y-97848595D01*
X163419039Y-97792286D01*
X163440429Y-97776049D01*
X163633496Y-97558193D01*
X163780352Y-97306858D01*
X163872476Y-97043890D01*
X163751155Y-96814000D01*
X162433000Y-96814000D01*
X162433000Y-96834000D01*
X162179000Y-96834000D01*
X162179000Y-96814000D01*
X160860845Y-96814000D01*
X160739524Y-97043890D01*
X160831648Y-97306858D01*
X160978504Y-97558193D01*
X161171571Y-97776049D01*
X161192961Y-97792286D01*
X161087614Y-97848595D01*
X160953038Y-97959038D01*
X160842595Y-98093614D01*
X160760528Y-98247150D01*
X160709992Y-98413746D01*
X160692928Y-98587000D01*
X156216938Y-98587000D01*
X156090469Y-98350394D01*
X155903197Y-98122203D01*
X155675006Y-97934931D01*
X155641460Y-97917000D01*
X155675006Y-97899069D01*
X155903197Y-97711797D01*
X156090469Y-97483606D01*
X156229625Y-97223264D01*
X156315316Y-96940777D01*
X156344251Y-96647000D01*
X156315316Y-96353223D01*
X156229625Y-96070736D01*
X156090469Y-95810394D01*
X155903197Y-95582203D01*
X155675006Y-95394931D01*
X155641460Y-95377000D01*
X155675006Y-95359069D01*
X155903197Y-95171797D01*
X156090469Y-94943606D01*
X156229625Y-94683264D01*
X156315316Y-94400777D01*
X156344251Y-94107000D01*
X156315316Y-93813223D01*
X156229625Y-93530736D01*
X156090469Y-93270394D01*
X155903197Y-93042203D01*
X155675006Y-92854931D01*
X155641460Y-92837000D01*
X155675006Y-92819069D01*
X155903197Y-92631797D01*
X156090469Y-92403606D01*
X156229625Y-92143264D01*
X156315316Y-91860777D01*
X156326942Y-91742743D01*
X156782201Y-92198003D01*
X156805999Y-92227001D01*
X156834997Y-92250799D01*
X156921723Y-92321974D01*
X157053753Y-92392546D01*
X157197014Y-92436003D01*
X157308667Y-92447000D01*
X157308676Y-92447000D01*
X157345999Y-92450676D01*
X157383322Y-92447000D01*
X160903405Y-92447000D01*
X160940294Y-92516014D01*
X161125866Y-92742134D01*
X161351986Y-92927706D01*
X161369374Y-92937000D01*
X161351986Y-92946294D01*
X161125866Y-93131866D01*
X160940294Y-93357986D01*
X160802401Y-93615966D01*
X160717487Y-93895889D01*
X160688815Y-94187000D01*
X160717487Y-94478111D01*
X160802401Y-94758034D01*
X160940294Y-95016014D01*
X161125866Y-95242134D01*
X161351986Y-95427706D01*
X161377722Y-95441462D01*
X161171571Y-95597951D01*
X160978504Y-95815807D01*
X160831648Y-96067142D01*
X160739524Y-96330110D01*
X160860845Y-96560000D01*
X162179000Y-96560000D01*
X162179000Y-96540000D01*
X162433000Y-96540000D01*
X162433000Y-96560000D01*
X163751155Y-96560000D01*
X163872476Y-96330110D01*
X163780352Y-96067142D01*
X163633496Y-95815807D01*
X163440429Y-95597951D01*
X163234278Y-95441462D01*
X163260014Y-95427706D01*
X163486134Y-95242134D01*
X163671706Y-95016014D01*
X163809599Y-94758034D01*
X163894513Y-94478111D01*
X163923185Y-94187000D01*
X163894513Y-93895889D01*
X163842704Y-93725098D01*
X164117014Y-93450788D01*
X164146011Y-93426991D01*
X164240984Y-93311266D01*
X164311556Y-93179237D01*
X164355013Y-93035976D01*
X164366010Y-92924323D01*
X164366010Y-92924315D01*
X164369686Y-92886990D01*
X164366010Y-92849665D01*
X164366010Y-91237620D01*
X164369686Y-91200295D01*
X164366010Y-91162970D01*
X164366010Y-91162962D01*
X164355013Y-91051309D01*
X164311556Y-90908048D01*
X164240984Y-90776019D01*
X164146011Y-90660294D01*
X164117013Y-90636496D01*
X159456519Y-85976003D01*
X159432716Y-85946999D01*
X159316991Y-85852026D01*
X159184962Y-85781454D01*
X159041701Y-85737997D01*
X158930048Y-85727000D01*
X158930037Y-85727000D01*
X158892715Y-85723324D01*
X158855393Y-85727000D01*
X156131416Y-85727000D01*
X156090469Y-85650394D01*
X155903197Y-85422203D01*
X155675006Y-85234931D01*
X155641460Y-85217000D01*
X155675006Y-85199069D01*
X155903197Y-85011797D01*
X156090469Y-84783606D01*
X156229625Y-84523264D01*
X156315316Y-84240777D01*
X156344251Y-83947000D01*
X156315316Y-83653223D01*
X156229625Y-83370736D01*
X156090469Y-83110394D01*
X155903197Y-82882203D01*
X155675006Y-82694931D01*
X155641460Y-82677000D01*
X155675006Y-82659069D01*
X155903197Y-82471797D01*
X156090469Y-82243606D01*
X156229625Y-81983264D01*
X156315316Y-81700777D01*
X156344251Y-81407000D01*
X156315316Y-81113223D01*
X156229625Y-80830736D01*
X156195558Y-80767000D01*
X160692928Y-80767000D01*
X160692928Y-81967000D01*
X160709992Y-82140254D01*
X160760528Y-82306850D01*
X160842595Y-82460386D01*
X160953038Y-82594962D01*
X161087614Y-82705405D01*
X161241150Y-82787472D01*
X161407746Y-82838008D01*
X161581000Y-82855072D01*
X163031000Y-82855072D01*
X163204254Y-82838008D01*
X163370850Y-82787472D01*
X163524386Y-82705405D01*
X163658962Y-82594962D01*
X163769405Y-82460386D01*
X163851472Y-82306850D01*
X163902008Y-82140254D01*
X163919072Y-81967000D01*
X163919072Y-80767000D01*
X163902008Y-80593746D01*
X163851472Y-80427150D01*
X163769405Y-80273614D01*
X163658962Y-80139038D01*
X163524386Y-80028595D01*
X163419039Y-79972286D01*
X163440429Y-79956049D01*
X163633496Y-79738193D01*
X163780352Y-79486858D01*
X163872476Y-79223890D01*
X163751155Y-78994000D01*
X162433000Y-78994000D01*
X162433000Y-79014000D01*
X162179000Y-79014000D01*
X162179000Y-78994000D01*
X160860845Y-78994000D01*
X160739524Y-79223890D01*
X160831648Y-79486858D01*
X160978504Y-79738193D01*
X161171571Y-79956049D01*
X161192961Y-79972286D01*
X161087614Y-80028595D01*
X160953038Y-80139038D01*
X160842595Y-80273614D01*
X160760528Y-80427150D01*
X160709992Y-80593746D01*
X160692928Y-80767000D01*
X156195558Y-80767000D01*
X156090469Y-80570394D01*
X155903197Y-80342203D01*
X155675006Y-80154931D01*
X155635053Y-80133576D01*
X155837729Y-79985486D01*
X156036733Y-79769035D01*
X156189686Y-79517919D01*
X156290709Y-79241789D01*
X156293358Y-79226026D01*
X156172217Y-78994000D01*
X154813000Y-78994000D01*
X154813000Y-79014000D01*
X154559000Y-79014000D01*
X154559000Y-78994000D01*
X153199783Y-78994000D01*
X153078642Y-79226026D01*
X153081291Y-79241789D01*
X153182314Y-79517919D01*
X153335267Y-79769035D01*
X153534271Y-79985486D01*
X153736947Y-80133576D01*
X153696994Y-80154931D01*
X153468803Y-80342203D01*
X153281531Y-80570394D01*
X153142375Y-80830736D01*
X153056684Y-81113223D01*
X153027749Y-81407000D01*
X153056684Y-81700777D01*
X153142375Y-81983264D01*
X153281531Y-82243606D01*
X153468803Y-82471797D01*
X153696994Y-82659069D01*
X153730540Y-82677000D01*
X153696994Y-82694931D01*
X153468803Y-82882203D01*
X153281531Y-83110394D01*
X153142375Y-83370736D01*
X153056684Y-83653223D01*
X153027749Y-83947000D01*
X153056684Y-84240777D01*
X153142375Y-84523264D01*
X153281531Y-84783606D01*
X153468803Y-85011797D01*
X153696994Y-85199069D01*
X153730540Y-85217000D01*
X153696994Y-85234931D01*
X153468803Y-85422203D01*
X153281531Y-85650394D01*
X153142375Y-85910736D01*
X153056684Y-86193223D01*
X153027749Y-86487000D01*
X153056684Y-86780777D01*
X153142375Y-87063264D01*
X153281531Y-87323606D01*
X153468803Y-87551797D01*
X153696994Y-87739069D01*
X153730540Y-87757000D01*
X153696994Y-87774931D01*
X153468803Y-87962203D01*
X153281531Y-88190394D01*
X153142375Y-88450736D01*
X153056684Y-88733223D01*
X153027749Y-89027000D01*
X153056684Y-89320777D01*
X153142375Y-89603264D01*
X153281531Y-89863606D01*
X153468803Y-90091797D01*
X153696994Y-90279069D01*
X153730540Y-90297000D01*
X153696994Y-90314931D01*
X153468803Y-90502203D01*
X153281531Y-90730394D01*
X153142375Y-90990736D01*
X153056684Y-91273223D01*
X153027749Y-91567000D01*
X153056684Y-91860777D01*
X153142375Y-92143264D01*
X153281531Y-92403606D01*
X153468803Y-92631797D01*
X153696994Y-92819069D01*
X153730540Y-92837000D01*
X153696994Y-92854931D01*
X153468803Y-93042203D01*
X153281531Y-93270394D01*
X153142375Y-93530736D01*
X153056684Y-93813223D01*
X153027749Y-94107000D01*
X153056684Y-94400777D01*
X153142375Y-94683264D01*
X153281531Y-94943606D01*
X153468803Y-95171797D01*
X153696994Y-95359069D01*
X153730540Y-95377000D01*
X153696994Y-95394931D01*
X153468803Y-95582203D01*
X153281531Y-95810394D01*
X153142375Y-96070736D01*
X153056684Y-96353223D01*
X153027749Y-96647000D01*
X153056684Y-96940777D01*
X153142375Y-97223264D01*
X153281531Y-97483606D01*
X153468803Y-97711797D01*
X153696994Y-97899069D01*
X153730540Y-97917000D01*
X153696994Y-97934931D01*
X153468803Y-98122203D01*
X153281531Y-98350394D01*
X153142375Y-98610736D01*
X153056684Y-98893223D01*
X153027749Y-99187000D01*
X153056684Y-99480777D01*
X153142375Y-99763264D01*
X153281531Y-100023606D01*
X153468803Y-100251797D01*
X153696994Y-100439069D01*
X153730540Y-100457000D01*
X153696994Y-100474931D01*
X153468803Y-100662203D01*
X153281531Y-100890394D01*
X153142375Y-101150736D01*
X153056684Y-101433223D01*
X153027749Y-101727000D01*
X153056684Y-102020777D01*
X153142375Y-102303264D01*
X153281531Y-102563606D01*
X153468803Y-102791797D01*
X153696994Y-102979069D01*
X153730540Y-102997000D01*
X153696994Y-103014931D01*
X153468803Y-103202203D01*
X153281531Y-103430394D01*
X153142375Y-103690736D01*
X153056684Y-103973223D01*
X153027749Y-104267000D01*
X153056684Y-104560777D01*
X153142375Y-104843264D01*
X153281531Y-105103606D01*
X153468803Y-105331797D01*
X153696994Y-105519069D01*
X153730540Y-105537000D01*
X153696994Y-105554931D01*
X153468803Y-105742203D01*
X153281531Y-105970394D01*
X153142375Y-106230736D01*
X153056684Y-106513223D01*
X153027749Y-106807000D01*
X153056684Y-107100777D01*
X153142375Y-107383264D01*
X153281531Y-107643606D01*
X153468048Y-107870876D01*
X153206290Y-108132634D01*
X152997811Y-108444644D01*
X152854209Y-108791332D01*
X152781000Y-109159374D01*
X152781000Y-109534626D01*
X152854209Y-109902668D01*
X152997811Y-110249356D01*
X153158605Y-110490000D01*
X140973395Y-110490000D01*
X141134189Y-110249356D01*
X141277791Y-109902668D01*
X141351000Y-109534626D01*
X141351000Y-109159374D01*
X141277791Y-108791332D01*
X141134189Y-108444644D01*
X140925710Y-108132634D01*
X140663952Y-107870876D01*
X140850469Y-107643606D01*
X140989625Y-107383264D01*
X141075316Y-107100777D01*
X141104251Y-106807000D01*
X141075316Y-106513223D01*
X140989625Y-106230736D01*
X140850469Y-105970394D01*
X140663197Y-105742203D01*
X140435006Y-105554931D01*
X140401460Y-105537000D01*
X140435006Y-105519069D01*
X140663197Y-105331797D01*
X140850469Y-105103606D01*
X140989625Y-104843264D01*
X141075316Y-104560777D01*
X141104251Y-104267000D01*
X141075316Y-103973223D01*
X140989625Y-103690736D01*
X140850469Y-103430394D01*
X140663197Y-103202203D01*
X140435006Y-103014931D01*
X140401460Y-102997000D01*
X140435006Y-102979069D01*
X140663197Y-102791797D01*
X140850469Y-102563606D01*
X140989625Y-102303264D01*
X141075316Y-102020777D01*
X141104251Y-101727000D01*
X141075316Y-101433223D01*
X140989625Y-101150736D01*
X140850469Y-100890394D01*
X140663197Y-100662203D01*
X140435006Y-100474931D01*
X140401460Y-100457000D01*
X140435006Y-100439069D01*
X140663197Y-100251797D01*
X140850469Y-100023606D01*
X140989625Y-99763264D01*
X141075316Y-99480777D01*
X141104251Y-99187000D01*
X141075316Y-98893223D01*
X141014631Y-98693170D01*
X148847004Y-90860798D01*
X148876001Y-90837001D01*
X148970974Y-90721276D01*
X149041546Y-90589247D01*
X149085003Y-90445986D01*
X149096000Y-90334333D01*
X149096000Y-90334332D01*
X149099677Y-90297000D01*
X149096000Y-90259667D01*
X149096000Y-75602535D01*
X149164586Y-75499889D01*
X149235068Y-75329729D01*
X149271000Y-75149089D01*
X149271000Y-74964911D01*
X149235068Y-74784271D01*
X149164586Y-74614111D01*
X149062262Y-74460972D01*
X148932028Y-74330738D01*
X148778889Y-74228414D01*
X148608729Y-74157932D01*
X148428089Y-74122000D01*
X148243911Y-74122000D01*
X148063271Y-74157932D01*
X147893111Y-74228414D01*
X147739972Y-74330738D01*
X147609738Y-74460972D01*
X147507414Y-74614111D01*
X147436932Y-74784271D01*
X147401000Y-74964911D01*
X147401000Y-75149089D01*
X147436932Y-75329729D01*
X147507414Y-75499889D01*
X147576001Y-75602537D01*
X147576001Y-76813257D01*
X147508889Y-76768414D01*
X147338729Y-76697932D01*
X147158089Y-76662000D01*
X146973911Y-76662000D01*
X146793271Y-76697932D01*
X146623111Y-76768414D01*
X146469972Y-76870738D01*
X146339738Y-77000972D01*
X146237414Y-77154111D01*
X146166932Y-77324271D01*
X146131000Y-77504911D01*
X146131000Y-77689089D01*
X146166932Y-77869729D01*
X146237414Y-78039889D01*
X146306001Y-78142537D01*
X146306001Y-80623257D01*
X146238889Y-80578414D01*
X146068729Y-80507932D01*
X145888089Y-80472000D01*
X145703911Y-80472000D01*
X145523271Y-80507932D01*
X145353111Y-80578414D01*
X145199972Y-80680738D01*
X145069738Y-80810972D01*
X144967414Y-80964111D01*
X144896932Y-81134271D01*
X144861000Y-81314911D01*
X144861000Y-81499089D01*
X144896932Y-81679729D01*
X144967414Y-81849889D01*
X145036001Y-81952537D01*
X145036000Y-87442198D01*
X141086942Y-91391257D01*
X141075316Y-91273223D01*
X140989625Y-90990736D01*
X140850469Y-90730394D01*
X140663197Y-90502203D01*
X140435006Y-90314931D01*
X140401460Y-90297000D01*
X140435006Y-90279069D01*
X140663197Y-90091797D01*
X140850469Y-89863606D01*
X140989625Y-89603264D01*
X141075316Y-89320777D01*
X141104251Y-89027000D01*
X141075316Y-88733223D01*
X141014631Y-88533171D01*
X141298013Y-88249789D01*
X141327011Y-88225991D01*
X141421984Y-88110266D01*
X141492556Y-87978237D01*
X141536013Y-87834976D01*
X141547010Y-87723323D01*
X141550687Y-87685990D01*
X141547010Y-87648657D01*
X141547010Y-86031984D01*
X141550686Y-85994661D01*
X141547010Y-85957339D01*
X141547010Y-85957329D01*
X141536013Y-85845676D01*
X141492556Y-85702415D01*
X141476000Y-85671441D01*
X141476000Y-85469211D01*
X141492556Y-85438237D01*
X141536013Y-85294976D01*
X141547010Y-85183323D01*
X141547010Y-85183313D01*
X141550686Y-85145991D01*
X141547010Y-85108668D01*
X141547010Y-80951984D01*
X141550686Y-80914661D01*
X141547010Y-80877339D01*
X141547010Y-80877329D01*
X141536013Y-80765676D01*
X141492556Y-80622415D01*
X141476000Y-80591441D01*
X141476000Y-80389211D01*
X141492556Y-80358237D01*
X141536013Y-80214976D01*
X141547010Y-80103323D01*
X141547010Y-80103313D01*
X141550686Y-80065991D01*
X141547010Y-80028668D01*
X141547010Y-75871984D01*
X141550686Y-75834662D01*
X141547010Y-75797339D01*
X141547010Y-75797329D01*
X141536013Y-75685676D01*
X141492556Y-75542415D01*
X141421985Y-75410387D01*
X141421984Y-75410385D01*
X141350809Y-75323659D01*
X141327011Y-75294661D01*
X141298014Y-75270864D01*
X140760447Y-74733298D01*
X140850469Y-74623606D01*
X140989625Y-74363264D01*
X141075316Y-74080777D01*
X141104251Y-73787000D01*
X141075316Y-73493223D01*
X140989625Y-73210736D01*
X140850469Y-72950394D01*
X140663197Y-72722203D01*
X140435006Y-72534931D01*
X140401460Y-72517000D01*
X140435006Y-72499069D01*
X140663197Y-72311797D01*
X140850469Y-72083606D01*
X140989625Y-71823264D01*
X141075316Y-71540777D01*
X141104251Y-71247000D01*
X141075316Y-70953223D01*
X140989625Y-70670736D01*
X140850469Y-70410394D01*
X140663952Y-70183124D01*
X140925710Y-69921366D01*
X141134189Y-69609356D01*
X141277791Y-69262668D01*
X141351000Y-68894626D01*
X141351000Y-68834000D01*
X152781000Y-68834000D01*
X152781000Y-68894626D01*
%TD*%
M02*
